<svg
   xmlns:dc="http://purl.org/dc/elements/1.1/"
   xmlns:cc="http://creativecommons.org/ns#"
   xmlns:rdf="http://www.w3.org/1999/02/22-rdf-syntax-ns#"
   xmlns:svg="http://www.w3.org/2000/svg"
   xmlns="http://www.w3.org/2000/svg"
   xmlns:sodipodi="http://sodipodi.sourceforge.net/DTD/sodipodi-0.dtd"
   xmlns:inkscape="http://www.inkscape.org/namespaces/inkscape"
   xml:space="preserve"
   width="2522px"
   height="2385px"
   style="shape-rendering:geometricPrecision; text-rendering:geometricPrecision; image-rendering:optimizeQuality; fill-rule:evenodd; clip-rule:evenodd"
   viewBox="0 0 25220 23850"
   id="svg5756"
   version="1.1"
   inkscape:version="0.92.1 r15371"
   sodipodi:docname="Russia_Moscow_oblast_locator_map_backup_backup.svg"><metadata
   id="metadata5863"><rdf:RDF><cc:Work
       rdf:about=""><dc:format>image/svg+xml</dc:format><dc:type
         rdf:resource="http://purl.org/dc/dcmitype/StillImage" /></cc:Work></rdf:RDF></metadata><sodipodi:namedview
   pagecolor="#ffffff"
   bordercolor="#666666"
   borderopacity="1"
   objecttolerance="10"
   gridtolerance="10"
   guidetolerance="10"
   inkscape:pageopacity="0"
   inkscape:pageshadow="2"
   inkscape:window-width="1280"
   inkscape:window-height="961"
   id="namedview5861"
   showgrid="false"
   inkscape:zoom="0.5597558"
   inkscape:cx="1523.6994"
   inkscape:cy="920.95674"
   inkscape:window-x="-8"
   inkscape:window-y="-8"
   inkscape:window-maximized="1"
   inkscape:current-layer="svg5756" />
 <defs
   id="defs5758"><inkscape:perspective
   sodipodi:type="inkscape:persp3d"
   inkscape:vp_x="0 : 1192.5 : 1"
   inkscape:vp_y="0 : 1000 : 0"
   inkscape:vp_z="2522 : 1192.5 : 1"
   inkscape:persp3d-origin="1261 : 795 : 1"
   id="perspective5865" />
  <style
   type="text/css"
   id="style5760">
   
    .str1 {stroke:black;stroke-width:60;stroke-linecap:round;stroke-linejoin:round}
    .str5 {stroke:#878787;stroke-width:30;stroke-linejoin:bevel}
    .str0 {stroke:#878787;stroke-width:30;stroke-linejoin:bevel}
    .str4 {stroke:#878787;stroke-width:30;stroke-linejoin:bevel}
    .str7 {stroke:black;stroke-width:60;stroke-linejoin:bevel}
    .str3 {stroke:#878787;stroke-width:30;stroke-linejoin:bevel}
    .str2 {stroke:#878787;stroke-width:30;stroke-linejoin:bevel}
    .str6 {stroke:#878787;stroke-width:30;stroke-linejoin:bevel}
    .fil1 {fill:none}
    .fil5 {fill:#DAFFD6}
    .fil0 {fill:#DBFFF8}
    .fil4 {fill:#E0E4FF}
    .fil7 {fill:#FFFFFF}
    .fil3 {fill:#F9E6FF}
    .fil2 {fill:#FBFFDE}
    .fil6 {fill:#FFDECF}
   
  </style>
 <inkscape:perspective
   id="perspective5875"
   inkscape:persp3d-origin="0.5 : 0.33333333 : 1"
   inkscape:vp_z="1 : 0.5 : 1"
   inkscape:vp_y="0 : 1000 : 0"
   inkscape:vp_x="0 : 0.5 : 1"
   sodipodi:type="inkscape:persp3d" />
  
  
 <inkscape:perspective
   id="perspective7471"
   inkscape:persp3d-origin="0.5 : 0.33333333 : 1"
   inkscape:vp_z="1 : 0.5 : 1"
   inkscape:vp_y="0 : 1000 : 0"
   inkscape:vp_x="0 : 0.5 : 1"
   sodipodi:type="inkscape:persp3d" /><inkscape:path-effect
   effect="spiro"
   id="path-effect3463"
   is_visible="true" /><inkscape:path-effect
   effect="spiro"
   id="path-effect3463-1"
   is_visible="true" />
   
   
   
   
   
   
   
   
   
   
   
    
   
   
   
   
   
   
   
   
   
   
   
   
   
   
   
   
   
   
   
   
   
   
   
   
   
   
   
   
   
   
   
   
   
   
   
   
   
   
   
   
   
   
   
   
    
   
     
   
   
    
   
   
   
   
   
   
   
   
   
   
   
   
   
   
   
   
   
   
   

   
   
   
   
   
   
   
   
  
  
   
   
   
   
   
</defs>
 <polygon
   id="_186521280"
   class="fil0 str0"
   points="11774.8,8296 11679.8,8215.8 11754.8,8180.71 11774.8,8085.48 11909.9,7995.25 11919.9,7960.16 11799.8,7970.19 11794.8,8010.29 11744.8,7995.25 11739.8,7854.9 11759.8,7739.62 11879.9,7589.25 11804.8,7534.1 11849.8,7373.71 11759.8,7253.41 11819.8,7238.38 11784.8,7133.11 12044.9,7037.87 12274.9,7067.95 12565,7318.58 12745,7308.55 12790,7328.59 12785,7423.84 12695,7443.88 12630,7754.65 12745,7819.81 12720,7854.9 13285.1,8341.12 13235.1,8376.19 13235.1,8381.21 13200.1,8401.26 13210.1,8421.31 13185.1,8451.38 13190.1,8456.4 13215.1,8491.48 13225.1,8491.48 13185.1,8566.67 13135.1,8556.64 13120.1,8571.69 13170.1,8646.87 13120.1,8641.86 13090.1,8727.08 13135.1,8812.28 13200.1,8842.35 13320.2,8992.73 13320.2,9007.77 13260.1,9062.9 13195.1,9243.35 13210.1,9338.59 13440.2,9293.47 13545.2,9363.66 13440.2,9524.05 13260.1,9539.08 13265.1,9584.2 13130.1,9594.23 13130.1,9729.56 12760,9398.73 12685,9388.72 12635,9383.7 12500,9383.7 12164.9,9253.38 12044.9,9263.4 12029.9,9268.41 12059.9,9228.31 12054.9,9062.9 12079.9,9047.86 12094.9,9042.86 12104.9,8997.74 12074.9,8977.69 12074.9,8912.53 12139.9,8917.54 12134.9,8867.41 12104.9,8842.35 11949.9,8882.46 11969.9,8967.67 11934.9,8967.67 11909.9,8867.41 11874.8,8862.41 11939.9,8777.19 11884.8,8702.01 11904.9,8626.82 11754.8,8496.5 11589.8,8601.76 11574.8,8536.6 11474.8,8566.67 11479.8,8481.47 11784.8,8426.32 11804.8,8376.19 "
   style="fill:#dbfff8;stroke:#878787;stroke-width:30;stroke-linejoin:bevel" /><polygon
   id="_142981528"
   class="fil2 str2"
   points="12264.9,12897.4 12239.9,12792.2 12179.9,12722 12149.9,12707 12169.9,12571.6 12199.9,12371.1 12279.9,12336 12234.9,12220.7 12580,12260.8 12700,12220.7 13060.1,11960.1 13220.1,11799.7 13240.1,11819.7 13245.1,11900 13330.2,11915 13380.2,11854.8 13505.2,11849.8 13595.2,11950.1 13515.2,11990.2 13595.2,12025.3 13595.2,12105.5 13710.2,12260.8 13785.2,12280.9 13830.3,12346.1 13935.3,12406.2 13870.3,12566.6 13900.3,12772.1 13945.3,12722 14045.3,12897.4 13960.3,12972.6 13890.3,12862.3 13800.2,12947.6 13750.2,12887.4 13750.2,12807.2 13645.2,12752.1 13615.2,12656.8 13485.2,12852.3 13375.2,12727 13400.2,12982.6 13080.1,12897.4 13040.1,12997.7 12830.1,12897.4 12760,12691.9 12545,12827.3 12314.9,12782.1 12284.9,12977.6 12174.9,12947.6 12139.9,13022.7 12134.9,13007.7 12134.9,12992.7 12154.9,12912.5 12189.9,12937.5 "
   style="fill:#fbffde;stroke:#878787;stroke-width:30;stroke-linejoin:bevel" /><path
   inkscape:connector-curvature="0"
   sodipodi:nodetypes="cccccccccccccccccccccccccccccccccccccccccccccccccccccccccccccccccccccccccccccccccccccccccccccccccccccccccccccccccccccccccccccccccc"
   id="_142172784"
   d="m 6188.67,12671.9 90.02,-100.3 -55.01,-130.3 150.02,-140.3 410.1,-70.2 225.04,-245.6 260.06,-100.3 -170.05,-145.3 15.02,-270.7 120.02,-95.3 -280.06,-390.9 65.02,-130.3 -45.01,-195.5 75.01,-50.2 -140.03,-155.3 120.02,-145.4 275.07,125.3 4.99,-190.5 115.03,30.1 225.05,-325.8 430.08,40.1 95.02,110.3 380.08,-35.1 120.03,175.4 235.05,-70.2 151.0975,257.301 69.4831,75.493 -30.1195,94.331 -110.9261,25.033 -113.0539,53.827 19.3083,124.069 108.6691,-34.363 47.4689,-96.908 30.1826,11.935 -17.6648,105.842 163.791,6.659 151.3775,113.357 61.1655,-47.213 66.1905,60.23 121.886,24.013 38.8835,-84.113 21.5072,9.041 41.0659,25.558 136.5739,-23.907 9.4632,-41.698 56.691,-49.811 -170.9524,-137.214 -76.8177,91.857 186.2893,21.968 12.8549,36.114 -201.4993,-12.639 -74.296,37.143 -118.5347,-45.473 37.2586,-60.012 c 10.6172,8.67 -124.7108,-28.721 -185.4872,-48.609 l 0.7005,-52.015 -203.2451,-104.442 570.8487,80.746 15.6318,10.779 201.2546,169.48 43.1736,-29.959 135.04,10.1 105,95.2 185,-195.5 265.1,100.3 0,-185.5 195,-55.1 50.1,25 35,-40.1 35,25.1 125,-160.4 -5,370.9 82.368,247.638 -141.434,151.191 8.745,100.791 -52.087,-84.949 -73.335,121.761 132.585,43.546 190.611,-222.94 57.547,99.162 40,110.2 -40,30.1 -30,-50.1 -65,85.2 -73.684,-110.465 -6.316,115.465 -65,-5 -65,-5 -20,115.3 -25,35.1 -55.1,-65.2 -65,165.4 -200,-50.1 -180.1,80.2 30.1,85.2 -120.1,125.3 -30,-40.1 -5,20 -35,-30 -90,40.1 -60,135.3 -210.05,-45.1 -15.01,95.2 -85.02,-60.1 -160.02,155.4 -55.02,-210.5 -275.06,65.1 100.02,75.2 -25,35.1 -95.02,-40.1 -50.01,105.2 135.02,20.1 -155.03,155.4 10,-115.3 -470.09,60.1 -105.02,145.4 -315.07,25.1 5.01,180.4 -205.05,170.4 -440.09,75.2 0,95.3 -240.05,-125.3 -65.01,125.3 -40.02,-145.4 -215.04,-15 -15,260.6 -345.07,-360.9 -255.06,240.6 -160.03,-195.5 z"
   style="fill:#f9e6ff;stroke:#878787;stroke-width:30;stroke-linejoin:bevel" /><polygon
   id="_186702352"
   class="fil3 str3"
   points="8749.2,11223.3 8629.17,11288.4 8484.15,11042.8 8484.15,11258.4 8159.08,11273.4 8219.1,11057.9 8139.08,10952.6 8349.12,10952.6 8249.1,10646.8 8534.15,10616.8 8609.17,10742.1 8824.22,10621.8 8699.19,10827.3 9104.27,10812.3 8844.22,11188.2 8889.23,10952.6 8649.18,10977.7 "
   style="fill:#f9e6ff;stroke:#878787;stroke-width:30;stroke-linejoin:bevel" /><path
   inkscape:connector-curvature="0"
   sodipodi:nodetypes="ccccccccccccccccccccccccccccccccccccccccccccccccccccccccccccccccccccccccc"
   id="_186807760"
   d="m 9654.38,10481.4 240.06,-120.3 20,-180.4 110.06,-15.1 40,-170.39 -95.04,-110.26 165.04,-215.54 -30,-160.4 -145.05,-45.11 -85.01,-105.26 90.01,-45.11 155.05,-75.19 235,160.39 130.1,15.05 -75.1,60.14 115.1,20.06 0,-70.18 170,30.08 -65,-55.15 45,-80.19 60,60.15 30,-65.16 65,175.43 125.1,105.27 45,-120.31 60,40.1 60,-20.04 35,75.19 115,0 35,35.08 -40,40.09 -30,100.26 -80,15.03 -20,-30.07 15,-30.07 -5,-70.18 -65,20.05 -30,-10.02 -105,90.22 15,35.09 -40,90.23 80,5 -45,25.07 20,35.09 10,75.17 45,45.09 0,-60.12 30,65.12 80,-80.16 90,10.03 -57.331,144.7 -12.669,30.73 5,-15 -35,-20.1 -20,45.1 -95,0 -80,45.1 -155.373,-1.646 38.784,150.273 103.427,79.478 -16.838,42.595 -50.1,25.1 -195,55.1 0,185.5 -265.1,-100.3 -185,195.5 -105,-95.2 -135.04,-10.1 -35.3577,43.357 -182.2731,-143.798 -42.4292,-49.859 20.01,-20.1 z"
   style="fill:#e0e4ff;stroke:#878787;stroke-width:30;stroke-linejoin:bevel" /><polygon
   id="_186808240"
   class="fil3 str3"
   points="11014.7,10160.6 11109.7,10160.6 11119.7,10210.8 11134.7,10210.8 11159.7,10150.6 11194.7,10155.6 11184.7,10205.7 11109.7,10336.1 10994.7,10265.9 10984.7,10275.9 10969.7,10265.9 10924.6,10260.9 10934.7,10205.7 "
   style="fill:#f9e6ff;stroke:#878787;stroke-width:30;stroke-linejoin:bevel" /><path
   inkscape:connector-curvature="0"
   sodipodi:nodetypes="ccccccccccccccccccccccccccccccccccccccccccccccccccccccccccccccccccccccccccccccccc"
   id="_186808720"
   d="m 10694.6,8747.12 5,65.16 180,-80.2 120.1,70.17 68.932,-33.9925 38.595,-37.4672 62.429,-52.5353 57.035,-68.8661 73.445,-5.9824 42.278,-74.5401 57.331,3.9325 -11.699,66.9354 125.808,22.2632 19.206,29.0326 57.864,4.4142 -6.124,121.7457 -10,90.22 75,-70.16 45,20.04 -60,140.35 65,105.26 -40,240.6 100,20.06 15,55.13 -175,125.32 -125,0 -95,60.14 -80.1,-30.07 -50,-190.48 -45,-5.01 -10,-110.28 65,-5.01 -25,-75.18 65,-10.03 -25,-110.27 120.1,-115.29 -90.1,-35.09 -55,45.12 -180,-70.18 -25,20.05 15,20.05 -25,20.05 -30,-25.06 -35,30.07 65,95.25 -40,30.07 -20,-30.07 -50.1,40.09 65.1,75.18 35,-45.11 115,75.19 -55,75.19 30,25.07 -40,125.3 60,35.09 -15,75.19 -60,20.04 -60,-40.1 -45,120.31 -125.1,-105.27 -65,-175.43 -30,65.16 -60,-60.15 -45,-25.07 -20,-85.2 70,-115.29 160,95.23 55,-175.42 -80,-40.12 10,135.35 -45,5.01 5,-95.24 -160,15.04 -45,-95.23 75,-15.04 -105,-80.21 -55,165.42 -85.1,-220.55 110.1,-30.07 55,-10.03 120,0 z"
   style="fill:#daffd6;stroke:#878787;stroke-width:30;stroke-linejoin:bevel" /><polygon
   id="_186809984"
   class="fil5 str5"
   points="11584.8,8656.9 11529.8,8656.9 11514.8,8626.82 11379.8,8601.76 11399.7,8566.67 11474.8,8566.67 11574.8,8536.6 11589.8,8601.76 "
   style="fill:#daffd6;stroke:#878787;stroke-width:30;stroke-linejoin:bevel" /><polygon
   id="_186813992"
   class="fil3 str3"
   points="11589.8,8601.76 11754.8,8496.5 11904.9,8626.82 11884.8,8702.01 11939.9,8777.19 11874.8,8862.41 11909.9,8867.41 11934.9,8967.67 11864.8,8992.73 11939.9,9283.45 11899.8,9288.47 11774.8,9378.69 11759.8,9323.56 11659.8,9303.5 11699.8,9062.9 11634.8,8957.64 11694.8,8817.29 11649.8,8797.25 11574.8,8867.41 11584.8,8777.19 11519.8,8747.12 11524.8,8727.08 11539.8,8691.99 11589.8,8696.99 11584.8,8656.9 "
   style="fill:#f9e6ff;stroke:#878787;stroke-width:30;stroke-linejoin:bevel" /><polygon
   id="_186815192"
   class="fil2 str2"
   points="11744.8,7995.25 11794.8,8010.29 11799.8,7970.19 11919.9,7960.16 11909.9,7995.25 11774.8,8085.48 11754.8,8180.71 11679.8,8215.8 11774.8,8296 11804.8,8376.19 11784.8,8426.32 11479.8,8481.47 11319.7,8436.35 11374.7,8366.18 11309.7,8336.1 11299.7,8215.8 11389.7,8160.67 11379.8,8095.51 11454.8,8140.61 11694.8,7844.87 11739.8,7854.9 "
   style="fill:#fbffde;stroke:#878787;stroke-width:30;stroke-linejoin:bevel" /><polygon
   id="_186816128"
   class="fil6 str6"
   points="13675.2,10501.5 13685.2,10536.6 13645.2,10551.6 13665.2,10606.7 13690.2,10616.8 13685.2,10681.9 13470.2,10732 13470.2,10707 13470.2,10436.3 13590.2,10391.2 13585.2,10466.4 "
   style="fill:#ffdecf;stroke:#878787;stroke-width:30;stroke-linejoin:bevel" /><polygon
   id="_186818312"
   class="fil6 str6"
   points="7879.02,7027.85 8004.04,6917.58 7949.04,6877.48 8019.05,6792.26 7989.04,6651.91 8269.1,6546.65 8304.11,6476.48 8564.17,6446.4 8579.17,6195.78 8694.19,6050.43 8664.18,5900.05 8844.22,5910.07 8844.22,5759.7 9074.27,5709.57 9309.31,5809.82 9329.32,5694.54 9099.28,5524.11 9364.33,5519.11 9259.3,5268.48 9389.33,5253.44 9389.33,5338.66 9759.41,5759.7 9764.42,5864.96 9994.46,5950.17 10064.5,6095.53 9929.45,6235.88 9944.45,6371.22 10394.5,6341.14 10519.6,6586.75 10609.6,6631.87 10684.6,6742.14 10479.6,7062.94 10544.6,7408.8 10644.6,7393.76 10789.6,7569.19 10619.6,7654.41 10609.6,7819.81 10799.6,8070.44 10844.6,8025.32 11164.7,8100.51 11144.7,8000.26 11254.7,8060.41 11289.7,8010.29 11379.8,8095.51 11389.7,8160.67 11299.7,8215.8 11309.7,8336.1 11374.7,8366.18 11319.7,8436.35 11479.8,8481.47 11474.8,8566.67 11399.7,8566.67 11399.7,8536.6 11344.7,8521.56 11304.7,8611.79 11224.7,8606.77 11184.7,8671.93 11059.7,8777.19 10999.7,8802.25 10879.6,8732.08 10699.6,8812.28 10694.6,8747.12 10574.6,8747.12 10589.6,8576.7 10529.6,8576.7 10569.6,8531.58 10219.5,8285.97 10084.5,8366.18 10024.5,8290.99 9914.44,8316.05 10044.5,8531.58 9974.45,8576.7 10014.5,8737.09 9984.46,8812.28 10184.5,8827.32 10349.5,8947.62 10309.5,8737.09 10374.5,8636.85 10504.6,8676.95 10519.6,8757.15 10409.5,8787.22 10494.6,9007.77 10549.6,8842.35 10654.6,8922.56 10579.6,8937.6 10624.6,9032.83 10784.6,9017.79 10779.6,9113.03 10824.6,9108.02 10814.6,8972.67 10894.6,9012.79 10839.6,9188.21 10679.6,9092.98 10609.6,9208.27 10629.6,9293.47 10674.6,9318.54 10629.6,9398.73 10694.6,9453.88 10524.6,9423.8 10524.6,9493.98 10409.5,9473.92 10484.6,9413.78 10354.5,9398.73 10119.5,9238.34 9964.45,9313.53 9879.43,9188.21 9774.41,9238.34 9829.42,9128.06 9754.41,9148.12 9689.39,8947.62 9559.36,8917.54 9584.38,8546.63 9294.31,8626.82 9209.3,8331.09 8454.14,8185.73 8454.14,8060.41 8204.08,7664.43 8044.06,7689.49 7859.01,7549.15 7824,7463.93 7909.02,7438.87 7934.04,7519.07 8064.06,7178.22 "
   style="fill:#ffdecf;stroke:#878787;stroke-width:30;stroke-linejoin:bevel" /><path
   style="fill:#ffdecf;stroke:#878787;stroke-width:30;stroke-linejoin:bevel"
   d="m 13440.2,9293.47 -230.1,45.12 -15,-95.24 65,-180.45 60.1,-55.13 4.9,-25.07 0,-15.03 80.1,0 -25,-60.16 35,-30.07 75,30.07 50,-35.08 265.1,25.07 40,-40.1 70,-25.06 65,5 50,80.2 -15,60.15 -45,-5.02 -5,-45.1 -120,0 -5,65.16 -115.1,75.19 95.1,125.31 -70.1,75.18 75,25.06 40.1,-25.06 45,50.13 -30,205.51 -75,40.1 -35.1,-30.07 -330,120.29 -85,5.02 -90.1,-75.19 -5,-45.12 180.1,-15.03 105,-160.39 z"
   id="_186824720"
   inkscape:connector-curvature="0"
   sodipodi:nodetypes="cccccccccccccccccccccccccccccccccccccc" /><polygon
   id="_186825848"
   class="fil4 str4"
   points="13620.2,8747.12 13615.2,8702.01 13700.2,8536.6 13830.3,8536.6 13975.3,8666.92 14065.3,8641.86 14095.3,8656.9 14080.3,8807.27 14045.3,8827.32 14020.3,8787.22 13940.3,8782.21 13915.3,8832.34 13845.3,8857.4 13735.2,8757.15 13730.2,8807.27 13670.2,8797.25 "
   style="fill:#e0e4ff;stroke:#878787;stroke-width:30;stroke-linejoin:bevel" /><polygon
   id="_186826872"
   class="fil3 str3"
   points="13130.1,6466.46 13225.1,6491.52 13230.1,6621.84 13315.2,6586.75 13700.2,6521.59 14200.3,6807.3 14320.4,6742.14 14365.4,6902.54 14440.4,6977.72 14925.5,6927.61 14965.5,6972.71 15180.5,6972.71 15175.5,6977.72 14960.5,7153.16 14925.5,7128.1 14860.5,7173.21 14875.5,7223.33 14730.4,7308.55 14910.5,7443.88 14835.5,7544.13 14690.4,7448.9 14615.4,7559.17 14725.4,7704.54 14830.5,7644.38 14875.5,7674.45 14830.5,7824.83 14890.5,7824.83 15025.5,8015.31 14955.5,8240.86 14890.5,8120.57 14765.5,8110.54 14690.4,8185.73 14580.4,8040.36 14440.4,8180.71 14220.3,8170.69 14295.4,8260.92 14150.3,8371.19 14220.3,8581.71 14120.3,8591.73 14025.3,8521.56 13975.3,8531.58 14065.3,8641.86 13975.3,8666.92 13830.3,8536.6 13700.2,8536.6 13615.2,8702.01 13620.2,8747.12 13670.2,8797.25 13730.2,8807.27 13735.2,8757.15 13845.3,8857.4 13805.3,8897.5 13540.2,8872.43 13490.2,8907.51 13415.2,8877.44 13380.2,8907.51 13405.2,8967.67 13325.1,8967.67 13325.1,8982.7 13320.2,8992.73 13200.1,8842.35 13135.1,8812.28 13090.1,8727.08 13120.1,8641.86 13170.1,8646.87 13120.1,8571.69 13135.1,8556.64 13185.1,8566.67 13225.1,8491.48 13215.1,8491.48 13190.1,8456.4 13220.1,8441.36 13210.1,8436.35 13220.1,8426.32 13230.1,8431.34 13240.1,8411.28 13235.1,8381.21 13235.1,8376.19 13285.1,8341.12 12720,7854.9 12745,7819.81 12630,7754.65 12695,7443.88 12785,7423.84 12790,7328.59 12745,7308.55 12810,7067.95 12725,6902.54 12955.1,6687 "
   style="fill:#f9e6ff;stroke:#878787;stroke-width:30;stroke-linejoin:bevel" /><polygon
   id="_186827496"
   class="fil4 str4"
   points="9344.32,4962.72 9499.35,4932.64 9389.33,4847.44 9424.34,4687.03 9139.28,4411.35 9344.32,4210.86 9439.34,4015.37 9694.4,4010.35 9834.43,3895.07 9774.41,3799.83 9594.37,3744.7 9624.38,3634.42 9699.4,3684.55 9749.4,3719.64 10019.5,3288.56 9884.44,3173.27 9954.46,3052.97 9839.43,2832.43 10044.5,2737.19 10069.5,2657 9899.44,2521.66 10039.5,2476.55 10029.5,2376.3 10129.5,2321.16 10434.5,2541.71 11179.7,3489.06 11314.7,3920.13 12029.9,3664.49 12059.9,3784.8 12244.9,3930.16 12520,4010.35 12775,3619.38 13045.1,3458.99 13180.1,3569.26 13160.1,3684.55 13220.1,3704.6 13290.1,3900.09 13270.1,4050.45 13355.2,4170.76 13325.1,4245.94 13480.2,4286.03 13625.2,4531.64 13455.2,4677.01 13355.2,4877.51 13455.2,5072.99 13245.1,5388.78 13260.1,5554.18 13120.1,5684.51 13240.1,5995.28 13020.1,6120.59 13260.1,6145.66 13310.1,6446.4 13225.1,6491.52 13130.1,6466.46 12955.1,6687 12725,6902.54 12810,7067.95 12745,7308.55 12565,7318.58 12274.9,7067.95 12044.9,7037.87 11784.8,7133.11 11819.8,7238.38 11759.8,7253.41 11849.8,7373.71 11804.8,7534.1 11879.9,7589.25 11759.8,7739.62 11739.8,7854.9 11694.8,7844.87 11454.8,8140.61 11379.8,8095.51 11289.7,8010.29 11254.7,8060.41 11144.7,8000.26 11164.7,8100.51 10844.6,8025.32 10799.6,8070.44 10609.6,7819.81 10619.6,7654.41 10789.6,7569.19 10644.6,7393.76 10544.6,7408.8 10479.6,7062.94 10684.6,6742.14 10609.6,6631.87 10519.6,6586.75 10394.5,6341.14 9944.45,6371.22 9929.45,6235.88 10064.5,6095.53 9994.46,5950.17 9764.42,5864.96 9759.41,5759.7 9389.33,5338.66 9389.33,5253.44 9369.32,5108.08 9429.34,5047.93 9349.33,5037.91 "
   style="fill:#e0e4ff;stroke:#878787;stroke-width:30;stroke-linejoin:bevel" /><polygon
   id="_186830176"
   class="fil2 str2"
   points="13825.2,9293.47 13750.2,9268.41 13820.3,9193.23 13725.2,9067.92 13840.3,8992.73 13845.3,8927.57 13965.3,8927.57 13970.3,8972.67 14015.3,8977.69 14030.3,8917.54 13980.3,8837.34 13915.3,8832.34 13940.3,8782.21 14020.3,8787.22 14045.3,8827.32 14080.3,8807.27 14095.3,8656.9 14065.3,8641.86 13975.3,8531.58 14025.3,8521.56 14120.3,8591.73 14220.3,8581.71 14150.3,8371.19 14295.4,8260.92 14220.3,8170.69 14440.4,8180.71 14580.4,8040.36 14690.4,8185.73 14765.5,8110.54 14890.5,8120.57 14955.5,8240.86 15025.5,8015.31 14890.5,7824.83 15085.5,7779.71 15180.5,7604.28 15435.6,7368.7 15520.6,7363.68 15665.6,7233.36 15710.6,7103.04 16445.8,6486.5 16520.8,6676.98 16865.9,6591.77 16720.9,6892.52 16840.9,7118.07 16810.9,7363.68 16900.9,7438.87 16885.9,7604.28 16935.9,7769.7 16775.9,7864.93 16890.9,7869.94 16955.9,7990.25 16845.9,8035.35 16715.9,7930.09 16615.8,7980.22 16630.8,7829.84 16560.8,7769.7 16485.8,7839.87 16465.8,7814.8 16485.8,7684.48 16270.8,7619.32 16385.8,7704.54 16320.8,7754.65 16435.8,7839.87 16450.8,7920.06 16295.8,7854.9 16325.8,7950.13 16205.8,7940.12 16115.7,7955.15 16250.8,8070.44 16175.7,8065.42 16040.7,8245.87 15550.6,8100.51 15530.6,8280.96 15735.6,8321.06 15750.7,8541.61 15605.6,8621.8 15575.6,8506.52 15440.6,8606.77 15550.6,8757.15 15405.6,8742.11 15430.6,8947.62 15270.6,8952.63 15260.5,9002.76 15390.6,9097.99 15380.6,9198.24 15475.6,9428.82 15470.6,9599.24 15315.6,9584.2 15330.6,9504.01 15260.5,9418.79 15185.5,9423.8 15175.5,9639.34 15110.5,9644.34 15030.5,9574.18 14995.5,9724.55 15110.5,9734.57 15295.6,9789.71 15325.6,9739.59 15365.6,9774.67 15290.6,9874.92 15305.6,10010.3 15005.5,10055.4 14905.5,9950.11 14890.5,10030.3 14710.4,10000.2 14555.4,10060.4 14480.4,9925.05 14290.4,9774.67 14165.3,9854.88 14080.3,9789.71 14105.3,9764.65 14095.3,9684.44 13940.3,9679.44 13805.3,9564.15 13880.3,9524.05 13910.3,9318.54 13865.3,9268.41 "
   style="fill:#fbffde;stroke:#878787;stroke-width:30;stroke-linejoin:bevel" /><polygon
   id="_186830584"
   class="fil4 str4"
   points="14725.4,7704.54 14615.4,7559.17 14690.4,7448.9 14835.5,7544.13 14910.5,7443.88 14730.4,7308.55 14875.5,7223.33 14860.5,7173.21 14925.5,7128.1 14960.5,7153.16 15175.5,6977.72 15180.5,6972.71 16295.8,6005.31 16315.8,6025.36 16220.8,6125.61 16300.8,6210.82 16285.8,6321.1 16445.8,6486.5 15710.6,7103.04 15665.6,7233.36 15520.6,7363.68 15435.6,7368.7 15180.5,7604.28 15085.5,7779.71 14890.5,7824.83 14830.5,7824.83 14875.5,7674.45 14830.5,7644.38 "
   style="fill:#e0e4ff;stroke:#878787;stroke-width:30;stroke-linejoin:bevel" /><polygon
   id="_186831808"
   class="fil5 str5"
   points="13235.1,2626.92 13465.2,2667.01 13675.2,2451.49 13820.3,2436.45 14130.3,2276.04 14330.4,2506.62 14505.4,2341.21 14395.4,2090.59 14555.4,1935.2 14575.4,1849.99 14605.4,1749.75 14800.5,1759.76 14920.5,1669.54 15285.6,1669.54 15465.6,1754.75 15465.6,1494.11 15780.7,1744.73 15745.7,1930.18 15855.7,2140.71 15765.7,2346.23 15840.7,2837.45 15965.7,2922.65 15875.7,3123.16 16040.7,3223.4 16060.7,3403.84 15675.6,3689.55 15615.6,3824.9 15720.6,3935.16 15960.7,3920.13 15730.7,4120.63 15955.7,4235.92 15935.7,4456.47 16220.8,4416.37 16290.8,4596.81 16135.7,4937.66 16455.8,4992.79 16495.8,5153.19 16275.8,5193.3 16375.8,5298.56 16285.8,5639.4 16420.8,5709.57 16380.8,5920.1 16295.8,6005.31 15180.5,6972.71 14965.5,6972.71 14925.5,6927.61 14440.4,6977.72 14365.4,6902.54 14320.4,6742.14 14200.3,6807.3 13700.2,6521.59 13315.2,6586.75 13230.1,6621.84 13225.1,6491.52 13310.1,6446.4 13260.1,6145.66 13020.1,6120.59 13240.1,5995.28 13120.1,5684.51 13260.1,5554.18 13245.1,5388.78 13455.2,5072.99 13355.2,4877.51 13455.2,4677.01 13625.2,4531.64 13480.2,4286.03 13325.1,4245.94 13355.2,4170.76 13270.1,4050.45 13290.1,3900.09 13220.1,3704.6 13160.1,3684.55 13180.1,3569.26 13045.1,3458.99 13155.1,3258.49 12960.1,2962.75 12985.1,2767.27 "
   style="fill:#daffd6;stroke:#878787;stroke-width:30;stroke-linejoin:bevel" /><polygon
   id="_186707080"
   class="fil6 str6"
   points="16040.7,8245.87 16175.7,8065.42 16250.8,8070.44 16115.7,7955.15 16205.8,7940.12 16325.8,7950.13 16295.8,7854.9 16450.8,7920.06 16435.8,7839.87 16320.8,7754.65 16385.8,7704.54 16270.8,7619.32 16485.8,7684.48 16465.8,7814.8 16485.8,7839.87 16585.8,8005.28 16525.8,7940.12 16320.8,8135.6 16515.8,8185.73 16495.8,8466.42 16225.8,8446.38 16220.8,8596.74 16070.7,8556.64 15985.7,8656.9 15805.7,8656.9 15750.7,8541.61 15735.6,8321.06 15530.6,8280.96 15550.6,8100.51 "
   style="fill:#ffdecf;stroke:#878787;stroke-width:30;stroke-linejoin:bevel" /><polygon
   id="_186709296"
   class="fil0 str0"
   points="15005.5,10055.4 15305.6,10010.3 15290.6,9874.92 15365.6,9774.67 15325.6,9739.59 15315.6,9584.2 15470.6,9599.24 15475.6,9428.82 15380.6,9198.24 15390.6,9097.99 15260.5,9002.76 15270.6,8952.63 15430.6,8947.62 15405.6,8742.11 15550.6,8757.15 15440.6,8606.77 15575.6,8506.52 15605.6,8621.8 15750.7,8541.61 15805.7,8656.9 15985.7,8656.9 16070.7,8556.64 16220.8,8596.74 16225.8,8446.38 16495.8,8466.42 16515.8,8185.73 16320.8,8135.6 16525.8,7940.12 16585.8,8005.28 16485.8,7839.87 16560.8,7769.7 16630.8,7829.84 16615.8,7980.22 16715.9,7930.09 16845.9,8035.35 16955.9,7990.25 16890.9,7869.94 16775.9,7864.93 16935.9,7769.7 16990.9,7920.06 17185.9,7980.22 17176,8265.93 17316,8326.08 17331,8336.1 17095.9,8471.44 17236,8686.97 17396,8641.86 17366,8972.67 17636,9108.02 17486,9168.17 17391,9564.15 17446,9784.7 17341,9869.91 17356,10010.3 16910.9,10180.7 16915.9,10366.1 16880.9,10536.6 16790.9,10230.8 16660.8,10180.7 16685.8,10115.5 16560.8,10025.3 16315.8,10080.4 16340.8,10120.5 16135.7,10356.1 16180.7,10586.7 16400.8,10576.7 16480.8,10681.9 16605.8,10651.8 16615.8,10596.7 16680.8,10596.7 16690.9,10646.8 16910.9,10887.4 16760.9,10967.6 16830.9,11057.9 16680.8,11057.9 16680.8,11378.7 16650.8,11388.7 16590.8,11313.5 16370.8,11253.3 16275.8,11138.1 16185.7,11213.3 15880.7,11283.4 15825.7,11348.6 15635.6,11348.6 15635.6,11273.4 15500.6,11253.3 15355.6,11338.6 15265.6,11348.6 15270.6,11178.2 15020.5,11092.9 15040.5,11012.7 14855.5,10992.7 14770.5,10797.2 14715.4,10807.2 14695.4,10752.1 14775.4,10707 14935.5,10782.2 14980.5,10707 14805.5,10611.8 14800.5,10531.6 14530.4,10456.4 14605.4,10306 14555.4,10060.4 14710.4,10000.2 14890.5,10030.3 14905.5,9950.11 "
   style="fill:#dbfff8;stroke:#878787;stroke-width:30;stroke-linejoin:bevel" /><polygon
   id="_186709472"
   class="fil4 str4"
   points="14995.5,9724.55 15030.5,9574.18 15110.5,9644.34 15175.5,9639.34 15185.5,9423.8 15260.5,9418.79 15330.6,9504.01 15315.6,9584.2 15325.6,9739.59 15295.6,9789.71 15110.5,9734.57 "
   style="fill:#e0e4ff;stroke:#878787;stroke-width:30;stroke-linejoin:bevel" /><polygon
   id="_186710344"
   class="fil5 str5"
   points="16400.8,10576.7 16180.7,10586.7 16135.7,10356.1 16340.8,10120.5 16315.8,10080.4 16560.8,10025.3 16685.8,10115.5 16660.8,10180.7 16790.9,10230.8 16880.9,10536.6 16890.9,10586.7 16680.8,10596.7 16615.8,10596.7 16605.8,10651.8 16480.8,10681.9 "
   style="fill:#daffd6;stroke:#878787;stroke-width:30;stroke-linejoin:bevel" /><polygon
   id="_186716824"
   class="fil5 str5"
   points="13935.3,12280.9 14045.3,12245.8 14125.3,12295.9 14070.3,12331 14080.3,12451.3 13935.3,12406.2 13830.3,12346.1 13785.2,12280.9 13710.2,12260.8 13595.2,12105.5 13595.2,12025.3 13620.2,11985.2 13795.2,11935 13895.3,12235.8 "
   style="fill:#daffd6;stroke:#878787;stroke-width:30;stroke-linejoin:bevel" /><polygon
   id="_186718616"
   class="fil3 str3"
   points="13470.2,11659.4 13600.2,11684.4 13620.2,11704.5 13595.2,11739.6 13670.2,11849.8 13620.2,11985.2 13595.2,12025.3 13515.2,11990.2 13595.2,11950.1 13505.2,11849.8 13380.2,11854.8 13330.2,11915 13245.1,11900 13240.1,11819.7 13220.1,11799.7 13285.1,11734.5 13415.2,11569.1 13460.2,11599.2 "
   style="fill:#f9e6ff;stroke:#878787;stroke-width:30;stroke-linejoin:bevel" /><polygon
   id="_186720768"
   class="fil0 str0"
   points="13550.2,11348.6 13695.2,11468.9 13750.2,11609.2 13750.2,11694.4 13600.2,11684.4 13470.2,11659.4 13460.2,11599.2 13415.2,11569.1 13455.2,11529 13445.2,11368.6 13410.2,11238.3 "
   style="fill:#dbfff8;stroke:#878787;stroke-width:30;stroke-linejoin:bevel" /><polygon
   id="_186722168"
   class="fil6 str6"
   points="14045.3,12897.4 13945.3,12722 13900.3,12772.1 13870.3,12566.6 13935.3,12406.2 14080.3,12451.3 14070.3,12331 14125.3,12295.9 14240.3,12301 14210.3,12200.7 14160.3,12190.7 14160.3,12070.4 14085.3,12000.2 14200.3,11925 14215.3,11844.8 14135.3,11859.9 14015.3,11779.6 14060.3,11699.5 14245.3,11819.7 14385.4,11794.7 14375.4,11689.4 14480.4,11614.2 14460.4,11524 14525.4,11534 14590.4,11433.8 14640.4,11438.8 14680.4,11328.5 14570.4,11223.3 14580.4,11153.1 14655.4,11143.1 14655.4,11118 14800.5,11037.8 14875.5,11108 15020.5,11092.9 15270.6,11178.2 15265.6,11348.6 15355.6,11338.6 15500.6,11253.3 15635.6,11273.4 15635.6,11348.6 15825.7,11348.6 15880.7,11283.4 16185.7,11213.3 16275.8,11138.1 16370.8,11253.3 16590.8,11313.5 16650.8,11388.7 16660.8,11448.8 17060.9,11599.2 17120.9,11935 17256,11874.9 17341,11859.9 17391,11920 17160.9,12020.3 17471,12280.9 17446,12396.2 17346,12321 17316,12361.1 16775.9,12366.1 16520.8,12541.5 16430.8,12977.6 16150.7,12917.5 16140.7,13143 16045.7,13288.4 16295.8,13398.7 16280.8,13564.1 16405.8,13659.3 16415.8,13854.8 16765.9,13779.6 16805.9,13965.1 16695.8,13980.1 16560.8,14215.7 16830.9,14436.3 16815.9,14616.7 16680.8,14752 16685.8,15027.7 16435.8,15178.1 16295.8,15163.1 16235.8,14937.5 16005.7,14912.4 15710.6,15062.8 15635.6,15007.7 15645.6,14827.2 15455.6,14882.4 15405.6,14832.2 15155.5,14892.4 14920.5,14862.3 14795.5,14927.5 14770.5,14792.1 14835.5,14676.8 14745.4,14666.8 14760.4,14561.6 14635.4,14501.4 14590.4,14616.7 14395.4,14656.8 14410.4,14566.6 14305.4,14541.5 14200.3,14416.2 14255.3,14361.1 14295.4,14411.2 14345.4,14310.9 14425.4,14331 14530.4,14190.6 14470.4,14045.3 14335.4,13925 14270.3,13980.1 14160.3,13674.4 14080.3,13624.2 14035.3,13684.4 13875.3,13549 14060.3,13433.8 13950.3,13072.9 13795.2,13128 13685.2,12857.3 13750.2,12887.4 13800.2,12947.6 13890.3,12862.3 13960.3,12972.6 "
   style="fill:#ffdecf;stroke:#878787;stroke-width:30;stroke-linejoin:bevel" /><polygon
   id="_186724320"
   class="fil6 str6"
   points="15645.6,13754.6 15605.6,13819.7 15315.6,13759.6 15200.5,13463.8 15275.6,13433.8 15365.6,13589.1 15495.6,13388.7 15790.7,13624.2 15655.6,13664.3 15740.7,13789.7 "
   style="fill:#ffdecf;stroke:#878787;stroke-width:30;stroke-linejoin:bevel" /><polygon
   id="_186723144"
   class="fil4 str4"
   points="15645.6,13754.6 15605.6,13819.7 15315.6,13759.6 15200.5,13463.8 15275.6,13433.8 15365.6,13589.1 15495.6,13388.7 15790.7,13624.2 15655.6,13664.3 15740.7,13789.7 "
   style="fill:#e0e4ff;stroke:#878787;stroke-width:30;stroke-linejoin:bevel" /><polygon
   id="_186730704"
   class="fil4 str4"
   points="16760.9,10967.6 16910.9,10887.4 16690.9,10646.8 16680.8,10596.7 16890.9,10586.7 16880.9,10536.6 16915.9,10366.1 16910.9,10180.7 17356,10010.3 17341,9869.91 17446,9784.7 17391,9564.15 17486,9168.17 17636,9108.02 17366,8972.67 17396,8641.86 17711.1,8581.71 17871.1,8641.86 18291.2,9012.79 18416.2,9223.3 18576.2,9458.89 18526.2,9509.01 18371.2,9303.5 18151.2,9243.35 17986.1,9248.37 18001.1,9634.33 17956.1,9644.34 17971.1,9779.69 18306.2,9774.67 18301.2,9804.75 18176.2,9814.78 18186.2,9930.05 17991.1,10000.2 18116.1,10250.9 18201.2,10270.9 18201.2,10386.2 18296.2,10386.2 18311.2,10702 18191.2,10722 18176.2,10862.4 18391.2,10972.6 18306.2,11188.2 18211.2,11208.2 18461.2,11438.8 18466.2,11589.2 18406.2,11629.3 18281.2,11624.3 18331.2,11669.4 18151.2,11935 17836.1,11894.9 17746.1,11935 17391,11920 17341,11859.9 17256,11874.9 17120.9,11935 17060.9,11599.2 16660.8,11448.8 16650.8,11388.7 16680.8,11378.7 16680.8,11057.9 16830.9,11057.9 "
   style="fill:#e0e4ff;stroke:#878787;stroke-width:30;stroke-linejoin:bevel" /><polygon
   id="_186731552"
   class="fil5 str5"
   points="17160.9,12020.3 17391,11920 17746.1,11935 17836.1,11894.9 18151.2,11935 18331.2,11669.4 18281.2,11624.3 18406.2,11629.3 18466.2,11589.2 18461.2,11438.8 18211.2,11208.2 18306.2,11188.2 18391.2,10972.6 18176.2,10862.4 18191.2,10722 18311.2,10702 18296.2,10386.2 18201.2,10386.2 18201.2,10270.9 18116.1,10250.9 17991.1,10000.2 18186.2,9930.05 18176.2,9814.78 18301.2,9804.75 18306.2,9774.67 18486.2,9779.69 18436.2,9709.51 18541.2,9674.43 18486.2,9544.1 18526.2,9509.01 18576.2,9458.89 18416.2,9223.3 18701.3,8937.6 18961.3,9062.9 19296.4,8897.5 19481.4,8967.67 19286.4,8997.74 19286.4,9087.96 19431.4,9163.15 19506.4,8992.73 19541.4,9052.88 19391.4,9268.41 19766.5,9799.73 20516.6,9884.95 20851.7,9669.41 20911.7,9719.53 20671.7,9935.07 20831.7,10205.7 20846.7,10481.4 21026.8,10516.5 21046.7,10511.5 21381.8,10386.2 21346.8,10456.4 21571.9,10451.4 21561.9,10697 21651.9,10722 21831.9,11052.8 21496.8,11544.1 21311.8,11975.1 21451.8,12020.3 21156.8,12265.9 20906.7,12235.8 21006.7,12606.7 20531.6,12666.9 20101.6,12621.7 20071.5,12877.4 19926.5,12972.6 19866.5,12877.4 19401.4,12857.3 19356.4,13067.9 19271.4,13138 19371.4,13343.5 19046.3,13318.5 19051.3,13684.4 18821.3,13819.7 18651.3,13809.7 18601.2,13804.7 18621.2,13679.4 18226.2,13644.3 18166.2,13183.1 17926.1,13238.3 17761.1,13113 17891.1,12952.6 17891.1,12742 17451,12867.4 17476,12712 17361,12601.7 17436,12476.4 17316,12361.1 17346,12321 17446,12396.2 17471,12280.9 "
   style="fill:#daffd6;stroke:#878787;stroke-width:30;stroke-linejoin:bevel" /><polygon
   id="_186735104"
   class="fil5 str5"
   points="19006.3,10030.3 19026.3,9884.95 19271.4,9874.92 19341.4,9779.69 19446.4,9930.05 19506.4,9905 19361.4,10270.9 19496.4,10301 19116.4,10411.3 19041.3,10361.1 19051.3,10260.9 18851.3,10401.2 18816.3,10285.9 18901.3,10110.5 "
   style="fill:#daffd6;stroke:#878787;stroke-width:30;stroke-linejoin:bevel" /><polygon
   id="_186736624"
   class="fil2 str2"
   points="17986.1,9248.37 18151.2,9243.35 18371.2,9303.5 18526.2,9509.01 18486.2,9544.1 18541.2,9674.43 18436.2,9709.51 18486.2,9779.69 18306.2,9774.67 17971.1,9779.69 17956.1,9644.34 18001.1,9634.33 "
   style="fill:#fbffde;stroke:#878787;stroke-width:30;stroke-linejoin:bevel" /><polygon
   id="_186738384"
   class="fil3 str3"
   points="19006.3,10030.3 19026.3,9884.95 19271.4,9874.92 19341.4,9779.69 19446.4,9930.05 19506.4,9905 19361.4,10270.9 19496.4,10301 19116.4,10411.3 19041.3,10361.1 19051.3,10260.9 18851.3,10401.2 18816.3,10285.9 18901.3,10110.5 "
   style="fill:#f9e6ff;stroke:#878787;stroke-width:30;stroke-linejoin:bevel" /><polygon
   id="_186740488"
   class="fil0 str0"
   points="21311.8,11975.1 21496.8,11544.1 21831.9,11052.8 21651.9,10722 21821.9,10722 21816.9,10331 22177,10316 22402,10195.7 22532.1,10351.1 22722.1,10331 22702.1,10120.5 22782.1,10110.5 22882.1,9859.88 23167.2,9864.89 23172.2,10000.2 23262.2,9899.98 23662.3,9935.07 23767.3,10225.8 23637.3,10576.7 23887.3,10947.6 23987.4,10917.5 24197.4,11233.3 24292.4,11243.3 24482.5,11504 24427.5,11684.4 24647.5,11955.1 24587.5,12190.7 24492.5,12155.6 24447.5,12140.5 24467.5,12656.8 25037.6,12631.8 25067.6,12827.3 25187.6,12872.4 25187.6,12877.4 25177.6,13233.3 24977.6,13198.2 24932.6,13584.1 25087.6,13759.6 25217.6,14210.7 25077.6,14321 25212.6,14481.4 25217.6,14491.4 25107.6,14546.5 24982.6,14922.5 24477.5,15102.9 24172.4,15458.8 23947.3,15388.6 23197.2,15579.1 23187.2,15594.1 22832.1,16260.8 23002.2,16260.8 23287.2,16050.3 23337.2,16145.5 23392.2,16240.7 23532.3,16265.8 23257.2,17213.1 23012.2,16992.6 23032.2,17218.2 22627.1,17228.2 22522.1,17057.8 22362,17042.7 22487.1,16721.9 22587.1,16742 22767.1,16606.6 22682.1,16396.1 22807.1,16135.5 22942.1,15965.1 22702.1,15784.6 22717.1,15664.3 22617.1,15609.2 22467,15193.1 22167,15213.2 22082,15268.3 21931.9,15208.2 21916.9,15047.8 21601.9,15062.8 21511.8,14902.4 21631.9,14787.1 21556.9,14691.9 21556.9,14351 21656.9,14346 21866.9,14155.6 21811.9,14035.3 21946.9,14010.2 21911.9,13769.6 22102,13749.5 22097,13594.2 22282,13589.1 22287,13323.5 22147,13218.2 22107,13007.7 22197,12947.6 21121.8,12932.5 21036.7,12842.3 21086.8,12651.8 21006.7,12606.7 20906.7,12235.8 21156.8,12265.9 21451.8,12020.3 "
   style="fill:#dbfff8;stroke:#878787;stroke-width:30;stroke-linejoin:bevel" /><polygon
   id="_186746352"
   class="fil0 str0"
   points="23142.2,11709.5 23117.2,11639.3 23177.2,11519 23342.2,11413.7 23347.2,11298.5 23427.3,11288.4 23427.3,11213.3 23572.3,11208.2 23592.3,11268.4 23662.3,11193.2 23717.3,11288.4 23822.3,11288.4 23777.3,11584.2 23592.3,11564.1 23512.3,11694.4 23217.2,11669.4 23217.2,11709.5 "
   style="fill:#dbfff8;stroke:#878787;stroke-width:30;stroke-linejoin:bevel" /><polygon
   id="_186749024"
   class="fil6 str6"
   points="23142.2,11709.5 23117.2,11639.3 23177.2,11519 23342.2,11413.7 23347.2,11298.5 23427.3,11288.4 23427.3,11213.3 23572.3,11208.2 23592.3,11268.4 23662.3,11193.2 23717.3,11288.4 23822.3,11288.4 23777.3,11584.2 23592.3,11564.1 23512.3,11694.4 23217.2,11669.4 23217.2,11709.5 "
   style="fill:#ffdecf;stroke:#878787;stroke-width:30;stroke-linejoin:bevel" /><polygon
   id="_186751448"
   class="fil2 str2"
   points="16830.9,14436.3 16560.8,14215.7 16695.8,13980.1 16805.9,13965.1 16765.9,13779.6 16415.8,13854.8 16405.8,13659.3 16280.8,13564.1 16295.8,13398.7 16045.7,13288.4 16140.7,13143 16150.7,12917.5 16430.8,12977.6 16520.8,12541.5 16775.9,12366.1 17316,12361.1 17436,12476.4 17361,12601.7 17476,12712 17451,12867.4 17891.1,12742 17891.1,12952.6 17761.1,13113 17926.1,13238.3 18166.2,13183.1 18226.2,13644.3 18621.2,13679.4 18601.2,13804.7 18651.3,13809.7 18771.3,14060.3 18731.3,14321 18911.3,14361.1 18801.3,14546.5 18591.2,14616.7 18826.3,14671.8 18691.3,14807.2 18736.3,14967.6 18621.2,15102.9 18226.2,14982.6 18091.1,15183.1 17581,15218.2 17516,15112.9 17185.9,15348.5 17000.9,15208.2 16890.9,15258.3 16955.9,15373.6 16630.8,15248.3 16645.8,15318.4 16535.8,15323.5 16520.8,15228.2 16435.8,15178.1 16685.8,15027.7 16680.8,14752 16815.9,14616.7 "
   style="fill:#fbffde;stroke:#878787;stroke-width:30;stroke-linejoin:bevel" /><polygon
   id="_186754144"
   class="fil6 str6"
   points="19371.4,13343.5 19271.4,13138 19356.4,13067.9 19401.4,12857.3 19866.5,12877.4 19926.5,12972.6 20071.5,12877.4 20101.6,12621.7 20531.6,12666.9 21006.7,12606.7 21086.8,12651.8 21036.7,12842.3 21121.8,12932.5 22197,12947.6 22107,13007.7 22147,13218.2 22287,13323.5 22282,13589.1 22097,13594.2 22102,13749.5 21911.9,13769.6 21946.9,14010.2 21811.9,14035.3 21866.9,14155.6 21656.9,14346 21556.9,14351 21556.9,14691.9 21631.9,14787.1 21511.8,14902.4 21601.9,15062.8 21916.9,15047.8 21931.9,15208.2 22082,15268.3 22167,15213.2 22467,15193.1 22617.1,15609.2 22717.1,15664.3 22702.1,15784.6 22942.1,15965.1 22807.1,16135.5 22682.1,16396.1 22767.1,16606.6 22587.1,16742 22487.1,16721.9 22362,17042.7 22302,17032.7 22282,17328.4 22157,17248.2 21841.9,16982.6 21846.9,16691.9 21691.9,16686.8 21696.9,16536.5 21486.8,16100.4 20846.7,16085.3 20566.7,16060.3 20341.6,15955 20246.6,16085.3 20026.5,16030.2 20056.5,15889.9 19831.5,15834.7 19716.5,15453.8 19046.3,15689.4 18851.3,15248.3 19116.4,15037.7 18871.3,15087.9 18736.3,14967.6 18691.3,14807.2 18826.3,14671.8 18591.2,14616.7 18801.3,14546.5 18911.3,14361.1 18731.3,14321 18771.3,14060.3 18651.3,13809.7 18821.3,13819.7 19051.3,13684.4 19046.3,13318.5 "
   style="fill:#ffdecf;stroke:#878787;stroke-width:30;stroke-linejoin:bevel" /><polygon
   id="_186760584"
   class="fil0 str0"
   points="5603.54,8195.75 5573.54,7874.96 5748.58,7794.75 5873.6,7985.23 5988.63,7879.97 6518.73,7864.93 6598.75,7749.64 6738.78,7839.87 7168.87,7709.54 7353.91,7774.71 7398.93,7699.52 7533.95,7719.57 7478.93,7504.03 7723.99,7594.26 7763.99,7504.03 7683.99,7448.9 7753.99,7398.77 7824,7463.93 7859.01,7549.15 8044.06,7689.49 8204.08,7664.43 8454.14,8060.41 8454.14,8185.73 9209.3,8331.09 9294.31,8626.82 9584.38,8546.63 9559.36,8917.54 9689.39,8947.62 9754.41,9148.12 9829.42,9128.06 9774.41,9238.34 9879.43,9188.21 9964.45,9313.53 9874.44,9358.64 9959.45,9463.9 10104.5,9509.01 10134.5,9669.41 9969.46,9884.95 10064.5,9995.21 10024.5,10165.6 9914.44,10180.7 9894.44,10361.1 9654.38,10481.4 9729.41,10561.6 9709.4,10581.7 9404.33,10586.7 9069.27,10436.3 8909.24,10165.6 8674.19,10235.8 8554.16,10060.4 8174.08,10095.5 8079.06,9985.2 7648.98,9945.1 7423.93,10270.9 7308.9,10240.8 7303.91,10431.3 7028.84,10306 6908.82,10451.4 6818.8,10411.3 6798.8,10501.5 6688.78,10431.3 6668.77,10280.9 6503.73,10361.1 6488.73,10080.4 6618.76,10085.4 6748.79,9935.07 6618.76,9829.81 6958.84,9719.53 6658.76,9233.33 6508.74,9243.35 6523.74,9082.95 6753.78,9087.96 6753.78,8807.27 6663.77,8792.24 6633.76,8681.96 6543.75,8636.85 6483.74,8717.05 6493.73,8777.19 6463.73,8827.32 6408.71,8827.32 6443.72,8686.97 6053.64,8631.83 6093.65,8797.25 5948.61,8882.46 5913.62,8506.52 5828.59,8496.5 5788.59,8376.19 5723.58,8406.28 5718.57,8275.95 "
   style="fill:#dbfff8;stroke:#878787;stroke-width:30;stroke-linejoin:bevel" /><polygon
   id="_186765040"
   class="fil5 str5"
   points="18986.3,17483.8 19011.3,17278.3 18691.3,16922.4 18746.3,16706.9 19066.3,16977.6 19506.4,17082.8 19611.5,16842.2 19496.4,16721.9 19866.5,16245.7 20381.6,16456.3 20846.7,16085.3 21486.8,16100.4 21696.9,16536.5 21691.9,16686.8 21846.9,16691.9 21841.9,16982.6 22157,17248.2 22242,17398.6 22217,17458.8 21811.9,17458.8 21786.9,17589.1 21476.8,17919.9 21481.8,18255.7 21161.8,18546.5 21296.8,18706.9 21166.8,18807.1 21091.8,18957.5 20996.7,19153 21026.8,19203.1 20881.7,19288.3 20896.7,19378.5 20806.7,19458.7 21101.8,19498.8 20881.7,19674.3 20931.7,19769.5 20741.7,19709.4 20731.7,19629.2 20436.6,19669.3 20396.6,19834.7 20321.6,19904.8 20181.6,19849.7 20306.6,19819.6 20446.6,19528.9 20236.6,19543.9 20206.6,19463.7 20326.6,19398.6 20286.6,19087.8 20181.6,19137.9 20016.5,18987.6 19936.5,18787.1 19636.5,18892.3 19456.4,18661.7 18861.3,18631.7 18716.3,18371 18501.2,18476.3 18581.2,18205.6 18281.2,18245.7 18251.2,18145.5 18121.1,18030.2 18211.2,17960 18041.1,17950 18156.2,17734.4 18086.1,17564 18026.1,17133 18166.2,17138 18481.2,17503.9 "
   style="fill:#daffd6;stroke:#878787;stroke-width:30;stroke-linejoin:bevel" /><polygon
   id="_186864912"
   class="fil2 str2"
   points="10504.6,1885.08 10674.6,1644.47 10954.7,1754.75 10994.7,1599.37 11494.8,1443.98 11609.8,1654.5 11834.8,1208.4 12019.9,1088.09 11934.9,877.571 12149.9,807.402 11904.9,646.996 11984.9,416.433 12490,220.937 12510,130.713 12645,175.831 12780,0.389764 13035.1,95.6339 13010.1,256.028 13170.1,256.028 13245.1,451.512 13380.2,426.449 13425.2,501.638 13555.2,471.567 13695.2,737.221 13860.3,636.981 14155.3,832.465 14225.3,1689.59 14510.4,1689.59 14495.4,1839.96 14575.4,1849.99 14555.4,1935.2 14395.4,2090.59 14505.4,2341.21 14330.4,2506.62 14130.3,2276.04 13820.3,2436.45 13675.2,2451.49 13465.2,2667.01 13235.1,2626.92 12985.1,2767.27 12960.1,2962.75 13155.1,3258.49 13045.1,3458.99 12775,3619.38 12520,4010.35 12244.9,3930.16 12059.9,3784.8 12029.9,3664.49 11314.7,3920.13 11179.7,3489.06 10434.5,2541.71 10129.5,2321.16 10404.5,2160.76 10439.5,2010.39 10529.6,1995.34 "
   style="fill:#fbffde;stroke:#878787;stroke-width:30;stroke-linejoin:bevel" /><polygon
   id="_186867008"
   class="fil3 str3"
   points="10079.5,1584.33 10124.5,1679.56 10309.5,1669.54 10329.5,1549.24 10474.6,1534.21 10449.5,1654.5 10414.5,1654.5 10379.5,1684.57 10459.6,1880.07 10504.6,1885.08 10529.6,1995.34 10439.5,2010.39 10404.5,2160.76 10129.5,2321.16 9594.37,1824.92 9784.41,1764.78 9759.41,1694.6 "
   style="fill:#f9e6ff;stroke:#878787;stroke-width:30;stroke-linejoin:bevel" /><polygon
   id="_186870064"
   class="fil0 str0"
   points="15795.7,17864.8 15740.7,17503.9 15850.7,17488.8 15900.7,17243.2 16140.7,17258.3 16170.7,17158 16310.8,17117.9 16440.8,17273.3 16745.9,17258.3 17075.9,17398.6 17181,17338.5 17286,17564 17541,17609.1 17441,17754.5 17841.1,17734.4 18026.1,17834.7 18086.1,17564 18156.2,17734.4 18041.1,17950 18211.2,17960 18121.1,18030.2 18251.2,18145.5 18001.1,18170.5 18236.2,18300.9 18231.2,18526.4 17976.1,18511.4 18071.1,18932.4 17861.1,18857.2 17856.1,19132.9 17516,18967.5 16900.9,19523.9 16650.8,19513.9 16755.9,19168 16430.8,19163 16550.8,19042.7 16360.8,18661.7 16455.8,18511.4 16095.7,18471.3 15875.7,18551.5 15780.7,18516.4 15945.7,18295.8 16185.7,18225.7 16195.7,18020.1 "
   style="fill:#dbfff8;stroke:#878787;stroke-width:30;stroke-linejoin:bevel" /><polygon
   id="_186871336"
   class="fil5 str5"
   points="12905.1,16626.7 12810,16320.9 12800,16130.5 12790,15985.1 12845.1,15864.8 13130.1,15980.1 13120.1,16045.3 13400.2,16190.6 13450.2,16080.3 13385.2,15930 13515.2,15909.9 13530.2,15814.7 13655.2,15955 13795.2,15919.9 13935.3,15819.7 13880.3,15614.2 13795.2,15654.3 13755.2,15468.8 13825.2,15363.6 13745.2,15313.4 13800.2,15153 13975.3,15233.2 13900.3,15303.4 14015.3,15478.8 14335.4,15228.2 14475.4,15253.3 14665.4,15072.8 14775.4,15042.8 14795.5,14927.5 14920.5,14862.3 15155.5,14892.4 15405.6,14832.2 15455.6,14882.4 15645.6,14827.2 15635.6,15007.7 15710.6,15062.8 16005.7,14912.4 16235.8,14937.5 16295.8,15163.1 16435.8,15178.1 16520.8,15228.2 16535.8,15323.5 16500.8,15463.8 16345.8,15423.7 16320.8,15599.1 16415.8,15624.2 16535.8,15809.7 16520.8,15930 16370.8,15884.8 16180.7,16115.4 16290.8,16215.7 16340.8,16100.4 16415.8,16190.6 16280.8,16376.1 16380.8,16361 16405.8,16506.4 16495.8,16456.3 16470.8,16681.8 16400.8,16641.7 16295.8,16827.2 16370.8,16887.3 16310.8,17117.9 16170.7,17158 16140.7,17258.3 15900.7,17243.2 15850.7,17488.8 15740.7,17503.9 15795.7,17864.8 16195.7,18020.1 16185.7,18225.7 15945.7,18295.8 15780.7,18516.4 15645.6,18426.2 15535.6,18521.4 15310.6,18406.1 15095.5,18481.3 15015.5,18626.7 14750.4,18842.2 14565.4,18721.9 14385.4,18686.8 14120.3,18706.9 14025.3,18686.8 13915.3,18601.6 13785.2,18606.6 13745.2,18391.1 13320.2,18210.6 13175.1,17914.9 13290.1,17754.5 13125.1,17704.4 13155.1,17488.8 12920.1,17458.8 12955.1,17303.4 12740,17218.2 12715,17022.7 12970.1,16967.5 12530,16651.8 "
   style="fill:#daffd6;stroke:#878787;stroke-width:30;stroke-linejoin:bevel" /><polygon
   id="_186875072"
   class="fil6 str6"
   points="18071.1,18932.4 17976.1,18511.4 18231.2,18526.4 18236.2,18300.9 18001.1,18170.5 18251.2,18145.5 18281.2,18245.7 18581.2,18205.6 18501.2,18476.3 18716.3,18371 18861.3,18631.7 19456.4,18661.7 19636.5,18892.3 19936.5,18787.1 20016.5,18987.6 20181.6,19137.9 20286.6,19087.8 20326.6,19398.6 20206.6,19463.7 20236.6,19543.9 20446.6,19528.9 20306.6,19819.6 20181.6,19849.7 20321.6,19904.8 20396.6,19834.7 20431.6,19995.1 20376.6,20060.2 20511.6,20140.4 20401.6,20456.2 20151.6,20481.3 20016.5,20285.8 19971.5,20446.2 19871.5,20426.1 19826.5,20566.5 19706.5,20401.1 19611.5,20511.3 19276.4,20486.3 19101.4,20807.1 19001.3,20721.9 18951.3,20521.4 18556.2,20701.8 18496.2,20581.5 18366.2,20731.9 18391.2,20832.1 18086.1,20917.3 18061.1,20656.7 17756.1,20421.1 17521,20496.3 17436,20371 17170.9,20466.2 16995.9,20290.8 17176,19939.9 16960.9,19809.6 16900.9,19523.9 17516,18967.5 17856.1,19132.9 17861.1,18857.2 "
   style="fill:#ffdecf;stroke:#878787;stroke-width:30;stroke-linejoin:bevel" /><polygon
   id="_186876560"
   class="fil2 str2"
   points="16190.8,22000 16260.8,21704.3 16125.7,21463.7 16325.8,21318.3 16490.8,21388.5 16415.8,21233.1 16515.8,21288.3 16505.8,21112.8 16805.9,20912.3 16625.8,20541.4 16875.9,20471.2 16905.9,20325.9 16995.9,20290.8 17170.9,20466.2 17436,20371 17521,20496.3 17756.1,20421.1 18061.1,20656.7 18086.1,20917.3 18391.2,20832.1 18426.2,20932.4 18326.2,20967.5 18411.2,21097.8 18216.2,21188 18241.2,21368.5 18471.2,21308.3 18501.2,21418.6 18301.2,21453.7 18226.2,21558.9 18266.2,21709.3 18176.2,21759.4 18226.2,22105.3 18451.2,22070.2 18641.3,22240.6 18771.3,22230.6 18886.3,22220.6 18941.3,22506.3 18601.2,22651.7 18596.2,22676.7 18581.2,22852.2 18401.2,22636.6 18321.2,22812.1 18096.1,22802 18121.1,22907.3 17786.1,23027.6 17751.1,23548.9 17836.1,23568.9 17806.1,23724.3 17546,23849.6 17456,23804.5 17391,23674.2 16825.9,23513.8 16770.9,23082.7 16880.9,22611.6 16665.8,22616.6 16495.8,22456.2 16595.8,22391 16565.8,22335.9 16500.8,22230.6 16400.8,22220.6 16350.8,22090.3 "
   style="fill:#fbffde;stroke:#878787;stroke-width:30;stroke-linejoin:bevel" /><polygon
   id="_186879704"
   class="fil3 str3"
   points="15015.5,18626.7 15095.5,18481.3 15310.6,18406.1 15535.6,18521.4 15645.6,18426.2 15780.7,18516.4 15875.7,18551.5 16095.7,18471.3 16455.8,18511.4 16360.8,18661.7 16550.8,19042.7 16430.8,19163 16755.9,19168 16650.8,19513.9 16900.9,19523.9 16960.9,19809.6 17176,19939.9 16995.9,20290.8 16905.9,20325.9 16875.9,20471.2 16625.8,20541.4 16550.8,20366 16345.8,20366 16190.8,20496.3 16030.7,20356 15995.7,20325.9 15855.7,20381 15690.6,20130.4 15525.6,20275.8 15335.6,20130.4 15310.6,19980 15095.5,19970 14940.5,20095.3 14835.5,19809.6 14635.4,19879.8 14395.4,19724.4 14380.4,19629.2 14475.4,19639.2 14455.4,19383.5 14315.4,19268.3 14330.4,19223.1 14145.3,19112.9 14195.3,18832.2 14125.3,18777 14120.3,18706.9 14385.4,18686.8 14565.4,18721.9 14750.4,18842.2 "
   style="fill:#f9e6ff;stroke:#878787;stroke-width:30;stroke-linejoin:bevel" /><polygon
   id="_186883408"
   class="fil4 str4"
   points="10819.6,16872.3 11044.7,16716.9 11284.7,16817.2 11369.7,16641.7 11469.8,16742 11769.8,16842.2 11814.8,17223.2 12049.9,17067.8 12029.9,17303.4 12319.9,17082.8 12540,17087.8 12645,17198.1 12740,17218.2 12955.1,17303.4 12920.1,17458.8 13155.1,17488.8 13125.1,17704.4 13290.1,17754.5 13175.1,17914.9 13320.2,18210.6 13745.2,18391.1 13785.2,18606.6 13550.2,18681.8 12990.1,18777 13085.1,18827.2 13165.1,18972.5 13085.1,19017.6 13090.1,19178 13150.1,19178 13140.1,19313.4 13055.1,19323.4 13040.1,19463.7 13075.1,19513.9 12855.1,19744.4 12735,19734.4 12670,19799.6 12390,19584 12109.9,19533.9 12084.9,19664.2 11994.9,19614.1 11989.9,19528.9 12014.9,19478.8 12039.9,19413.6 11979.9,19233.2 11804.8,19213.1 11824.8,19153 11734.8,19117.9 11764.8,19002.6 11689.8,18872.3 11614.8,18897.3 11534.8,18726.9 11494.8,18736.9 11484.8,18681.8 11334.7,18721.9 11229.7,18686.8 11149.7,18736.9 11124.7,18601.6 11049.7,18616.6 11034.7,18757 10924.6,18646.7 10874.6,18726.9 10754.6,18621.6 10749.6,18696.8 10744.6,18827.2 10559.6,18752 10639.6,18646.7 10639.6,18646.7 10539.6,18601.6 10439.5,18666.8 10374.5,18591.6 10474.6,18531.4 10444.6,18491.3 10484.6,18386.1 10579.6,18330.9 10484.6,18215.6 10494.6,18115.4 10179.5,18145.5 10159.5,18070.3 10239.5,17960 10124.5,17829.7 10104.5,17729.4 10049.5,17629.2 10119.5,17654.2 10134.5,17594.1 9924.44,17383.6 10019.5,17303.4 9854.43,17067.8 9819.42,17082.8 9734.4,16997.6 9744.41,16902.4 9654.38,16787.1 9854.43,16732 10359.5,16852.3 10414.5,16987.6 10554.6,16711.9 "
   style="fill:#e0e4ff;stroke:#878787;stroke-width:30;stroke-linejoin:bevel" /><polygon
   id="_186884296"
   class="fil4 str4"
   points="12395,18626.7 12510,18666.8 12550,18912.4 12314.9,19007.6 12124.9,18852.2 11959.9,18782 "
   style="fill:#e0e4ff;stroke:#878787;stroke-width:30;stroke-linejoin:bevel" /><polygon
   id="_186888056"
   class="fil4 str4"
   points="11364.7,18255.7 11064.7,18215.6 11144.7,18150.5 11019.7,18090.3 10994.7,17965 11234.7,17819.7 11214.7,17659.3 11374.7,17704.4 11364.7,17849.7 11464.8,17784.6 11634.8,17819.7 11529.8,17965 11529.8,18130.4 11724.8,18080.3 11739.8,18245.7 11494.8,18160.5 11384.7,18361 "
   style="fill:#e0e4ff;stroke:#878787;stroke-width:30;stroke-linejoin:bevel" /><polygon
   id="_186889336"
   class="fil0 str0"
   points="12139.9,13960.1 12254.9,14090.4 12239.9,14125.5 12184.9,14105.4 12039.9,14185.6 11929.9,14140.5 11904.9,14275.9 11754.8,14235.8 11809.8,14200.7 11704.8,14145.5 11724.8,14035.3 11674.8,14015.2 11689.8,13960.1 11779.8,14015.2 11804.8,13909.9 11899.8,14020.2 11929.9,13899.9 12004.9,13869.8 "
   style="fill:#dbfff8;stroke:#878787;stroke-width:30;stroke-linejoin:bevel" /><polygon
   id="_186891288"
   class="fil0 str0"
   points="12710,14371.1 12695,14025.2 12370,13955.1 12289.9,13854.8 12324.9,13704.4 12485,13669.3 12395,13594.2 12550,13348.6 12535,13263.3 12685,13188.1 12830.1,12897.4 13040.1,12997.7 13080.1,12897.4 13400.2,12982.6 13375.2,12727 13485.2,12852.3 13615.2,12656.8 13645.2,12752.1 13750.2,12807.2 13750.2,12887.4 13685.2,12857.3 13795.2,13128 13950.3,13072.9 14060.3,13433.8 13875.3,13549 14035.3,13684.4 14080.3,13624.2 14160.3,13674.4 14270.3,13980.1 14335.4,13925 14470.4,14045.3 14530.4,14190.6 14425.4,14331 14345.4,14310.9 14295.4,14411.2 14255.3,14361.1 14200.3,14416.2 14305.4,14541.5 14410.4,14566.6 14395.4,14656.8 14590.4,14616.7 14635.4,14501.4 14760.4,14561.6 14745.4,14666.8 14835.5,14676.8 14770.5,14792.1 14795.5,14927.5 14775.4,15042.8 14665.4,15072.8 14475.4,15253.3 14335.4,15228.2 14015.3,15478.8 13900.3,15303.4 13975.3,15233.2 13800.2,15153 13745.2,15313.4 13825.2,15363.6 13755.2,15468.8 13795.2,15654.3 13880.3,15614.2 13935.3,15819.7 13795.2,15919.9 13655.2,15955 13530.2,15814.7 13515.2,15909.9 13385.2,15930 13450.2,16080.3 13400.2,16190.6 13120.1,16045.3 13130.1,15980.1 12845.1,15864.8 12790,15985.1 12800,16130.5 12490,16110.4 12440,16155.5 12359.9,15945 12575,15674.3 12445,15609.2 12695,15529 12550,15123 12715,15082.9 12600,14877.4 12505,14922.5 12465,14842.3 12625,14606.7 12560,14556.6 12640,14481.4 12725,14591.6 12785,14541.5 "
   style="fill:#dbfff8;stroke:#878787;stroke-width:30;stroke-linejoin:bevel" /><path
   inkscape:connector-curvature="0"
   sodipodi:nodetypes="ccccccccccccccccccccccccccccccccccccccccccccccccccccccccccccccccccccccccccc"
   id="_186892232"
   d="m 11214.7,13323.5 15,-165.4 80,50.1 114.364,-149.19 116.667,-58.013 31.14,146.885 185.266,67.919 -55.736,93.751 30.064,96.516 183.435,47.732 -24.3,-144.58 115.542,-73.467 -17.564,-119.451 73.942,-5.955 29.483,-66.825 30.527,-58.719 52.37,-37.203 110,30 30,-195.5 230.1,45.2 215,-135.4 70.1,205.5 -145.1,290.7 -150,75.2 15,85.3 -155,245.6 90,75.1 -160.1,35.1 -35,150.4 80.1,100.3 325,70.1 15,345.9 75,170.4 -60,50.1 -85,-110.2 -80,75.2 -195,-45.2 9.9,245.6 -145,-50.1 -50,235.6 -85,-125.3 -110,140.3 -160.1,-285.7 -205,250.7 -359.819,161.908 60.338,-409.682 33.891,-18.286 -71.346,-94.31 -74.673,3.49 8.058,-64.925 -9.468,-55.049 40.053,16.613 58.201,34.284 33.132,-33.324 54.052,5.06 26.149,-42.438 -16.339,-56.172 -98.725,-112.525 84.131,-57.044 9.334,-59.509 91.733,-43.469 -82.3,-67.974 79.922,-99.917 36.155,4.589 40.268,-31.538 -3.602,40.814 24.89,36.664 43.167,-50.404 57.156,54.743 -67.84,-416.407 -147.203,-20.544 -8.033,-88.07 -51.429,-29.157 -190.333,-15.575 z"
   style="fill:#f9e6ff;stroke:#878787;stroke-width:30;stroke-linejoin:bevel" /><path
   inkscape:connector-curvature="0"
   id="_186897200"
   d="m 9778.125,12030.625 -108.75,80 -265,50 -155,155.313 10,-115.313 -470.3125,60.313 -105,145.312 -315,25 5,180.312 -205,170.626 -440,75 0,95.312 -240,-125.312 -65,125.312 -40,-145.312 -215.3125,-15 -15,260.624 -345,-360.937 -255,240.625 -5,210.625 155,200.313 -285,100.312 15,290.625 -170,-40 -350,130.313 -60.3125,-180.313 -285,200.313 -100,-180.313 -355,-20 -80,-170.625 -215,30 -355,335.938 -50,295.937 85,-145.625 125,40.312 -80,345.938 -300.3125,115 -110,-115 -375,80 -20,335.938 -95,10 125,285.624 85,15 75,165.626 140,-110.313 100,35 85,170.625 155.3125,50 -20,-60.312 110,-70 5,105.312 310,85 80,240.625 95,45 165,-190.313 355,40 80,190.626 230.3125,-155.313 -70.3125,-30.313 75,-165.312 130.3125,-125.312 -25,-50 60,-245.626 175,50 15,-95.312 -15,-30 -50,-140.312 85,10 35,-165.313 130,-80.313 80,145.313 125,-20 -5,-70.313 220,-25 5,0 60,80.313 120,-135.313 -40,-90.312 285,-145.312 50,-115.313 120.3125,45.313 -90.3125,110 95.3125,135.312 30,40.312 -110.3125,25 30,155.313 -65,95.313 115.3125,160.312 145,-140.312 240,160.312 320,-65 165,230.625 -30,130.313 110,120.312 -60,145.312 115,30 10,5 215,-225.624 -70,-80 420.3125,-105.313 120,-275.625 335,-160.625 -230,-55 1.25,-217.187 -110.3125,-76.876 -229.0625,-290.312 -245,-237.812 -30.9375,-125.313 -3.75,-105 -81.5625,-35.625 45.9375,-93.75 -90.625,-22.5 -19.6875,-108.75 -69.375,-49.688 13.125,-213.124 43.125,3.75 30,-371.563 560.3125,7.187 35.625,118.438 151.25,34.062 10.9375,328.438 125.625,73.438 85,-68.438 74.6875,-67.5 79.0625,-5.312 33.4375,75.624 215,86.876 210.6245,47.812 -272.187,-258.125 218.75,-36.25 -84.6875,-132.5 85,-94.687 -55.625,-106.563 21.5625,-340 -37.8125,-144.687 -125.9375,-225.313 z m -955,2286.563 25.3125,9.374 -14.6875,36.876 47.5,15.937 -30,65.313 -19.375,-7.813 -8.75,6.563 -5.3125,24.062 -21.875,17.5 -25.625,-26.25 13.4375,-24.062 12.1875,4.687 18.4375,-27.187 5.625,-50.938 -7.5,-10 10.625,-34.062 z"
   style="fill:#daffd6;stroke:#878787;stroke-width:30;stroke-linejoin:bevel" /><polygon
   id="_186902800"
   class="fil5 str5"
   points="8384.12,14275.9 8409.14,14481.4 8154.08,14491.4 8159.08,14331 "
   style="fill:#daffd6;stroke:#878787;stroke-width:30;stroke-linejoin:bevel" /><polygon
   id="_186915824"
   class="fil2 str2"
   points="10069.5,15218.2 10444.6,15022.7 10414.5,15163.1 10994.7,15198.1 11619.8,14922.5 11824.8,14671.8 11984.9,14957.5 12094.9,14817.2 12179.9,14942.5 12229.9,14706.9 12374.9,14757 12365,14511.4 12560,14556.6 12625,14606.7 12465,14842.3 12505,14922.5 12600,14877.4 12715,15082.9 12550,15123 12695,15529 12445,15609.2 12575,15674.3 12359.9,15945 12440,16155.5 12490,16110.4 12800,16130.5 12810,16320.9 12905.1,16626.7 12530,16651.8 12970.1,16967.5 12715,17022.7 12740,17218.2 12645,17198.1 12540,17087.8 12319.9,17082.8 12029.9,17303.4 12049.9,17067.8 11814.8,17223.2 11769.8,16842.2 11469.8,16742 11369.7,16641.7 11284.7,16817.2 11044.7,16716.9 10819.6,16872.3 10554.6,16711.9 10414.5,16987.6 10359.5,16852.3 9854.43,16732 9809.42,16586.6 9854.43,16411.2 9749.4,16431.2 9734.4,16341 9629.38,16295.9 9524.36,16315.9 9529.36,16020.2 9744.41,15995.1 9739.41,15945 9964.45,15930 9949.45,15834.7 10114.5,15794.6 "
   style="fill:#fbffde;stroke:#878787;stroke-width:30;stroke-linejoin:bevel" /><polygon
   id="_186919456"
   class="fil2 str2"
   points="8384.12,14275.9 8409.14,14481.4 8154.08,14491.4 8159.08,14331 "
   style="fill:#fbffde;stroke:#878787;stroke-width:30;stroke-linejoin:bevel" /><polygon
   id="_186920456"
   class="fil6 str6"
   points="11364.7,18255.7 11064.7,18215.6 11144.7,18150.5 11019.7,18090.3 10994.7,17965 11234.7,17819.7 11214.7,17659.3 11374.7,17704.4 11364.7,17849.7 11464.8,17784.6 11634.8,17819.7 11529.8,17965 11529.8,18130.4 11724.8,18080.3 11739.8,18245.7 11494.8,18160.5 11384.7,18361 "
   style="fill:#ffdecf;stroke:#878787;stroke-width:30;stroke-linejoin:bevel" /><polygon
   id="_186921776"
   class="fil5 str5"
   points="10579.6,18330.9 10484.6,18386.1 10444.6,18491.3 10474.6,18531.4 10374.5,18591.6 10274.5,18606.6 10089.5,18456.2 10134.5,18366 10094.5,18335.9 10134.5,18255.7 10099.5,18210.6 10159.5,18070.3 10179.5,18145.5 10494.6,18115.4 10484.6,18215.6 "
   style="fill:#daffd6;stroke:#878787;stroke-width:30;stroke-linejoin:bevel" /><polygon
   id="_186923280"
   class="fil2 str2"
   points="12395,18626.7 12510,18666.8 12550,18912.4 12314.9,19007.6 12124.9,18852.2 11959.9,18782 "
   style="fill:#fbffde;stroke:#878787;stroke-width:30;stroke-linejoin:bevel" /><polygon
   id="_186924016"
   class="fil5 str5"
   points="5468.52,4907.58 5468.52,4817.35 5468.52,4797.31 5628.56,4822.37 5733.57,4611.85 6078.64,4506.58 6443.72,4170.76 6508.74,4286.03 6978.83,4301.08 6983.84,4060.48 7223.89,4065.49 7328.91,3900.09 7603.97,4095.57 7528.94,3859.99 8329.12,3403.84 8274.1,3213.38 8669.18,3383.8 8704.19,3293.58 8774.2,3413.87 9184.29,3509.1 9094.27,3659.48 9594.37,3744.7 9774.41,3799.83 9834.43,3895.07 9694.4,4010.35 9439.34,4015.37 9344.32,4210.86 9139.28,4411.35 9424.34,4687.03 9389.33,4847.44 9499.35,4932.64 9344.32,4962.72 9349.33,5037.91 9429.34,5047.93 9369.32,5108.08 9389.33,5253.44 9259.3,5268.48 9364.33,5519.11 9099.28,5524.11 9329.32,5694.54 9309.31,5809.82 9074.27,5709.57 8844.22,5759.7 8844.22,5910.07 8664.18,5900.05 8694.19,6050.43 8579.17,6195.78 8564.17,6446.4 8304.11,6476.48 8269.1,6546.65 7989.04,6651.91 8019.05,6792.26 7949.04,6877.48 8004.04,6917.58 7879.02,7027.85 8064.06,7178.22 7934.04,7519.07 7909.02,7438.87 7824,7463.93 7753.99,7398.77 7683.99,7448.9 7763.99,7504.03 7723.99,7594.26 7478.93,7504.03 7533.95,7719.57 7398.93,7699.52 7353.91,7774.71 7168.87,7709.54 6738.78,7839.87 6598.75,7749.64 6518.73,7864.93 5988.63,7879.97 5918.61,7458.93 6043.63,7057.93 5603.54,6822.33 5628.56,6641.89 5338.49,6651.91 5168.46,6341.14 5378.5,6306.05 5193.46,6090.52 5278.48,5950.17 5058.44,5950.17 4928.41,5694.54 4728.37,5504.07 4778.38,5047.93 4898.4,5083.02 4998.42,4792.3 "
   style="fill:#daffd6;stroke:#878787;stroke-width:30;stroke-linejoin:bevel" /><polygon
   id="_186924944"
   class="fil0 str0"
   points="1432.68,10561.6 1607.72,10591.7 1692.73,10401.2 1912.78,10356.1 1992.8,10270.9 2122.82,10270.9 2187.84,10060.4 2452.89,10095.5 2382.88,10255.9 2572.91,10641.8 2327.87,10822.3 2577.92,10787.2 2587.93,10892.5 3078.03,10852.4 3148.04,11022.8 3273.06,11057.9 3318.07,10882.4 3503.12,10812.3 3613.14,10807.2 3598.14,11037.8 3743.16,11138.1 4133.25,10977.7 4433.31,11213.3 4348.29,11388.7 4548.33,11348.6 4503.32,11524 4673.35,11604.2 4603.34,11744.6 4758.37,11769.6 4823.39,12115.5 4963.42,11990.2 5153.46,12260.8 5268.48,12170.6 5633.55,12802.2 5553.53,12912.5 5308.49,12887.4 5383.5,13087.9 5008.42,13293.4 5078.44,13378.6 5033.42,13473.9 4818.38,13503.9 4463.31,13839.8 4413.3,14135.5 4498.31,13990.1 4623.35,14030.2 4543.33,14376.1 4243.27,14491.4 4133.25,14376.1 3758.16,14456.3 3738.16,14792.1 3643.14,14802.2 3768.17,15087.9 3708.16,15173.1 3503.12,15223.2 3358.08,15117.9 3388.09,14997.6 3263.06,15002.7 3008.01,14666.8 2877.98,14822.2 2827.97,14716.9 2597.92,14842.3 2457.9,14742 2177.84,14727 2127.83,14872.3 2187.84,14932.5 2097.82,15082.9 1972.8,15012.7 1782.76,15082.9 1852.77,15168.1 1607.72,15203.2 1522.7,15273.3 1332.66,15198.1 1267.64,15228.2 1172.62,15143 1097.61,15138 1072.61,14997.6 1057.61,14922.5 862.56,14897.4 727.536,14686.9 802.548,14591.6 567.508,14391.1 662.528,14376.1 742.536,14195.7 722.54,13849.8 822.556,13819.7 782.552,13654.3 947.587,13514 817.56,13448.8 867.567,13298.4 747.544,13213.2 757.548,13077.9 902.575,13002.7 872.564,12957.6 917.575,12882.4 862.56,12737 1037.6,12646.8 762.544,12421.2 787.548,12180.6 1002.59,12160.6 1027.6,12260.8 1142.62,12215.7 1117.62,12085.4 1252.64,12075.4 1212.64,11749.6 1047.6,11684.4 1022.6,11473.9 897.567,11423.8 987.591,11128 907.571,11072.9 822.556,10827.3 842.564,10712 1022.6,10757.1 932.575,10531.6 987.591,10481.4 957.579,10346.1 1267.64,10361.1 1222.64,10551.6 1357.67,10611.8 "
   style="fill:#dbfff8;stroke:#878787;stroke-width:30;stroke-linejoin:bevel" /><polygon
   id="_186929960"
   class="fil6 str6"
   points="1637.73,5945.17 1752.75,5940.15 1617.72,5744.66 1797.76,5684.51 1677.73,5614.34 1717.74,5168.24 1787.75,5258.46 1917.78,4992.79 1877.78,4977.76 1782.76,4942.67 1702.74,5088.03 1387.68,5098.05 1447.69,4692.05 1582.71,4687.03 1422.69,4541.67 1452.69,4421.38 1627.73,4421.38 1712.74,4526.64 1652.73,4591.8 1767.76,4666.99 1907.78,4666.99 2297.86,4255.96 2387.88,4255.96 2422.89,4461.48 2582.92,4406.34 2562.91,4496.57 2737.95,4526.64 2697.95,4646.93 2862.98,4847.44 2933,4822.37 2948,5027.89 3118.03,5032.89 3298.07,4887.53 3363.08,4897.56 3363.08,4952.7 3598.14,4987.79 3463.1,5037.91 3498.11,5113.09 3603.13,5062.96 3638.14,5188.28 4053.23,5203.31 4078.23,5138.15 4538.33,5163.22 4658.35,5308.57 4588.34,5338.66 4598.34,5499.05 4728.37,5504.07 4928.41,5694.54 4733.37,5724.62 4718.37,6281 4443.31,6215.84 4373.29,6436.39 4448.31,6626.85 4008.22,6702.04 3983.21,6817.33 3423.1,6762.19 2827.97,7017.82 2857.97,7353.65 2687.94,7443.88 2647.94,7353.65 2712.95,7258.42 2572.91,7208.3 2452.89,7338.62 2292.86,7088 1967.79,7138.13 1927.78,7077.97 2022.8,6892.52 2002.8,6862.43 1897.78,6882.49 1772.75,6837.38 1887.78,6722.09 1727.74,6591.77 1627.73,6621.84 1637.73,6651.91 1552.7,6702.04 1372.67,6476.48 1367.67,6401.3 1322.66,6326.11 1337.66,6275.98 1602.72,6361.2 1817.76,6190.78 "
   style="fill:#ffdecf;stroke:#878787;stroke-width:30;stroke-linejoin:bevel" /><polygon
   id="_186934568"
   class="fil2 str2"
   points="3593.13,10336.1 3733.16,10626.8 3873.19,10205.7 4198.25,10125.5 4233.26,10020.3 4753.37,9960.14 4808.38,9634.33 4898.4,9965.14 4983.42,9945.1 4973.41,9694.47 5328.49,9438.83 5098.44,9363.66 5273.48,9258.4 5178.46,9108.02 5538.53,8882.46 5523.53,8782.21 5338.49,8707.02 5413.5,8541.61 5853.59,8601.76 5828.59,8496.5 5913.62,8506.52 5948.61,8882.46 6093.65,8797.25 6053.64,8631.83 6443.72,8686.97 6408.71,8827.32 6463.73,8827.32 6523.74,9082.95 6508.74,9243.35 6658.76,9233.33 6958.84,9719.53 6618.76,9829.81 6748.79,9935.07 6618.76,10085.4 6488.73,10080.4 6503.73,10361.1 6668.77,10280.9 6688.78,10431.3 6798.8,10501.5 6818.8,10411.3 6908.82,10451.4 7048.85,10606.7 6973.84,10656.9 7018.85,10852.4 6953.83,10982.7 7233.89,11373.6 7113.87,11468.9 7098.85,11739.6 7268.9,11884.9 7008.84,11985.2 6783.8,12230.8 6373.7,12301 6223.68,12441.3 6278.69,12571.6 6188.67,12671.9 6393.71,12737 6553.74,12932.5 6548.74,13143 6703.78,13343.5 6418.72,13443.8 6433.72,13734.5 6263.69,13694.4 5913.62,13824.7 5853.59,13644.3 5568.53,13844.8 5468.52,13664.3 5113.44,13644.3 5033.42,13473.9 5078.44,13378.6 5008.42,13293.4 5383.5,13087.9 5308.49,12887.4 5553.53,12912.5 5633.55,12802.2 5268.48,12170.6 5153.46,12260.8 4963.42,11990.2 4823.39,12115.5 4758.37,11769.6 4603.34,11744.6 4673.35,11604.2 4503.32,11524 4548.33,11348.6 4348.29,11388.7 4433.31,11213.3 4133.25,10977.7 3743.16,11138.1 3598.14,11037.8 3613.14,10807.2 3503.12,10812.3 3618.13,10722 3568.12,10636.8 3313.08,10506.5 "
   style="fill:#fbffde;stroke:#878787;stroke-width:30;stroke-linejoin:bevel" /><polygon
   id="_186941952"
   class="fil3 str3"
   points="877.571,7734.61 1002.59,7644.38 892.571,7544.13 732.532,7569.19 707.528,7383.74 872.564,7293.51 772.548,7193.26 1102.62,6907.55 1032.6,6847.4 1107.61,6747.16 912.579,6646.91 867.567,6456.43 1322.66,6326.11 1367.67,6401.3 1372.67,6476.48 1552.7,6702.04 1637.73,6651.91 1627.73,6621.84 1727.74,6591.77 1887.78,6722.09 1772.75,6837.38 1897.78,6882.49 2002.8,6862.43 2022.8,6892.52 1927.78,7077.97 1967.79,7138.13 2292.86,7088 2452.89,7338.62 2572.91,7208.3 2712.95,7258.42 2647.94,7353.65 2687.94,7443.88 2857.97,7353.65 2922.99,7489 2762.95,7599.26 2607.92,8100.51 2933,8100.51 2787.96,8255.9 2862.98,8571.69 3058.02,8636.85 3023.01,8897.5 2862.98,9037.85 2942.99,9243.35 2552.92,9604.25 2667.93,9905 2452.89,10095.5 2187.84,10060.4 2122.82,10270.9 1992.8,10270.9 1912.78,10356.1 1692.73,10401.2 1607.72,10591.7 1432.68,10561.6 1357.67,10611.8 1222.64,10551.6 1267.64,10361.1 957.579,10346.1 942.579,10280.9 707.528,10240.8 742.536,10085.4 527.492,9794.72 507.485,9664.4 332.457,9398.73 437.481,9263.4 312.449,9328.56 277.441,9143.11 2.38583,8837.34 272.445,8361.16 382.465,8381.21 492.485,8190.74 462.485,8055.41 627.52,8120.57 667.524,8030.34 727.536,7905.03 842.564,7970.19 917.575,7784.73 "
   style="fill:#f9e6ff;stroke:#878787;stroke-width:30;stroke-linejoin:bevel" /><polygon
   id="_186945080"
   class="fil4 str4"
   points="2862.98,9037.85 3023.01,8897.5 3058.02,8636.85 2862.98,8571.69 2787.96,8255.9 2933,8100.51 2607.92,8100.51 2762.95,7599.26 2922.99,7489 2857.97,7353.65 2827.97,7017.82 3423.1,6762.19 3983.21,6817.33 4008.22,6702.04 4448.31,6626.85 4373.29,6436.39 4443.31,6215.84 4718.37,6281 4733.37,5724.62 4928.41,5694.54 5058.44,5950.17 5278.48,5950.17 5193.46,6090.52 5378.5,6306.05 5168.46,6341.14 5338.49,6651.91 5628.56,6641.89 5603.54,6822.33 6043.63,7057.93 5918.61,7458.93 5988.63,7879.97 5873.6,7985.23 5748.58,7794.75 5573.54,7874.96 5603.54,8195.75 5718.57,8275.95 5723.58,8406.28 5788.59,8376.19 5828.59,8496.5 5853.59,8601.76 5413.5,8541.61 5338.49,8707.02 5523.53,8782.21 5538.53,8882.46 5178.46,9108.02 5273.48,9258.4 5098.44,9363.66 5328.49,9438.83 4973.41,9694.47 4983.42,9945.1 4898.4,9965.14 4808.38,9634.33 4753.37,9960.14 4233.26,10020.3 4198.25,10125.5 3873.19,10205.7 3733.16,10626.8 3593.13,10336.1 3313.08,10506.5 3568.12,10636.8 3618.13,10722 3503.12,10812.3 3318.07,10882.4 3273.06,11057.9 3148.04,11022.8 3078.03,10852.4 2587.93,10892.5 2577.92,10787.2 2327.87,10822.3 2572.91,10641.8 2382.88,10255.9 2452.89,10095.5 2667.93,9905 2552.92,9604.25 2942.99,9243.35 "
   style="fill:#e0e4ff;stroke:#878787;stroke-width:30;stroke-linejoin:bevel" /><polygon
   id="_186946608"
   class="fil6 str6"
   points="6633.76,8681.96 6663.77,8792.24 6753.78,8807.27 6753.78,9087.96 6523.74,9082.95 6463.73,8827.32 6493.73,8777.19 6483.74,8717.05 6543.75,8636.85 "
   style="fill:#ffdecf;stroke:#878787;stroke-width:30;stroke-linejoin:bevel" /><polygon
   id="_186947840"
   class="fil6 str6"
   points="9439.34,12040.3 9339.32,11965.1 9614.38,11900 9669.4,12110.5 9404.33,12160.6 9269.31,12140.5 9319.32,12035.3 9414.34,12075.4 "
   style="fill:#ffdecf;stroke:#878787;stroke-width:30;stroke-linejoin:bevel" /><polygon
   id="_186948960"
   class="fil5 str5"
   points="8749.2,11223.3 8629.17,11288.4 8484.15,11042.8 8484.15,11258.4 8159.08,11273.4 8219.1,11057.9 8139.08,10952.6 8349.12,10952.6 8249.1,10646.8 8534.15,10616.8 8609.17,10742.1 8824.22,10621.8 8699.19,10827.3 9104.27,10812.3 8844.22,11188.2 8889.23,10952.6 8649.18,10977.7 "
   style="fill:#daffd6;stroke:#878787;stroke-width:30;stroke-linejoin:bevel" /><path
   inkscape:connector-curvature="0"
   sodipodi:nodetypes="ccccccccccccccccccccccccccccccccccccccccccccccccccccccccccccccccccccccc"
   id="_186951328"
   d="m 13265.1,9584.2 90.1,75.19 85,-5.02 330,-120.29 35.1,30.07 135,115.29 155,5 10,80.21 -25,25.06 85,65.17 125.1,-80.21 190,150.38 75,135.35 50,245.6 -75,150.4 270.1,75.2 5,80.2 11.469,6.856 11.877,3.6 156.587,80.961 -49.49,78.164 -162.378,-71.75 -78.165,42.469 20,55.1 55.1,-10 85,195.5 185,20 -20,80.2 -145,15.1 -75,-70.2 -145.1,80.2 0,25.1 -75,10 -220,-75.2 -30,-60.1 -135.1,80.2 -55,-100.3 -110,-70.2 -35,5.1 -150,-80.2 -35.1,50.1 -200,15 -20,-95.2 -5,-25.1 100,-25.1 15,0 -15,-90.2 5,-65.1 -25,-10.1 -20,-55.1 40,-15 -10,-35.1 -90,-35.1 5,-75.2 -120,45.1 -7.647,-178.895 -4.851,-113.484 4.395,-12.199 142.592,-84.011 14.485,-39.745 35.271,41.421 74.167,10.115 -8.216,53.367 -64.235,-9.821 -77.302,88.892 -71.314,-34.413 -50.112,-8.483 -27.233,-143.844 -300.1,-275.64 0,-135.33 z"
   style="fill:#daffd6;stroke:#878787;stroke-width:30;stroke-linejoin:bevel" /><path
   inkscape:connector-curvature="0"
   sodipodi:nodetypes="ccccccccsssscccccccccccccccccccccccccccccccccccccccccccccccccccccccccc"
   id="_186992352"
   d="m 13555.2,11213.3 -5,-5.1 30,-25 -65,-65.2 25,-20 75,65.1 80,-90.2 35,-5 c -1.574,19.609 38.287,-14.782 47.095,-0.942 13.46,21.15 9.751,23.033 20.417,51.1 4.152,10.927 23.92,-26.417 31.158,-10.51 4.533,9.962 18.421,37.008 19.093,58.937 0.639,20.866 38.645,-26.362 40.545,-22.728 l -70.435,104.783 17.156,47.561 5.623,45.818 220.06,42.222 -1.489,-169.69 -83.105,-47.819 83.332,-27.122 -81.118,-72.378 111.2,9.404 -20.342,-35.826 33.301,-18.896 -54.901,0.47 -8.269,-37.02 -55.004,-5.196 10.783,-47.468 35,-5.1 110,70.2 55,100.3 135.1,-80.2 30,60.1 220,75.2 -10,70.2 110,105.2 -40,110.3 -50,-5 -65,100.2 -65,-10 20,90.2 -105,75.2 10,105.3 -140.1,25 -185,-120.2 -45,80.1 120,80.3 80,-15.1 -15,80.2 -115,75.2 75,70.2 0,120.3 50,10 30,100.3 -115,-5.1 -80,-50.1 -110,35.1 -40,-45.1 -100.1,-300.8 -175,50.2 50,-135.4 -75,-110.2 25,-35.1 -20,-20.1 150,10 0,-85.2 -55,-140.3 -145,-120.3 25,-120.3 -20,-15 z"
   style="fill:#e0e4ff;stroke:#878787;stroke-width:30;stroke-linejoin:bevel" /><polygon
   id="_186997536"
   class="fil6 str6"
   points="14820.5,9514.02 14790.5,9514.02 14785.5,9478.94 14750.4,9483.95 14765.5,9534.08 14735.4,9559.14 14750.4,9569.17 14865.5,9644.34 14945.5,9529.06 14830.5,9463.9 "
   style="fill:#ffdecf;stroke:#878787;stroke-width:30;stroke-linejoin:bevel" /><polygon
   id="_186999008"
   class="fil6 str6"
   points="10109.5,11333.5 10104.5,11158.1 10274.5,11158.1 10274.5,11268.4 10149.5,11338.6 "
   style="fill:#ffdecf;stroke:#878787;stroke-width:30;stroke-linejoin:bevel" /><polygon
   id="_186999872"
   class="fil3 str3"
   points="14965.5,12436.3 14830.5,12486.4 14790.5,12521.5 14670.4,12381.1 14545.4,12255.8 14470.4,12301 14430.4,12270.9 14435.4,12175.6 14385.4,12110.5 14395.4,12040.3 14560.4,12005.2 14595.4,11900 14780.5,11884.9 14950.5,12005.2 14950.5,12125.5 15100.5,12240.8 15050.5,12426.3 15260.5,12606.7 15200.5,12681.9 "
   style="fill:#f9e6ff;stroke:#878787;stroke-width:30;stroke-linejoin:bevel" /><polygon
   id="_187001576"
   class="fil0 str0"
   points="14590.4,8842.35 14605.4,8967.67 14490.4,9027.82 14470.4,9012.79 14495.4,8977.69 14335.4,8842.35 14280.4,8722.06 14295.4,8707.02 14375.4,8752.13 14430.4,8707.02 14460.4,8651.89 14675.4,8747.12 14660.4,8797.25 14565.4,8772.18 14550.4,8802.25 "
   style="fill:#dbfff8;stroke:#878787;stroke-width:30;stroke-linejoin:bevel" /><polygon
   id="_187005304"
   class="fil7 str7"
   points="13595.2,10195.7 13670.2,10095.5 13720.2,10130.6 13755.2,10105.5 13745.2,10070.4 13605.2,10055.4 13635.2,10010.3 13590.2,10020.3 13585.2,10060.4 13475.2,10120.5 13530.2,10185.7 13560.2,10170.7 13570.2,10195.7 "
   style="fill:none;stroke:#000000;stroke-width:60;stroke-linejoin:bevel" /><polygon
   id="_143057608"
   class="fil7 str7"
   points="10219.5,8285.97 10084.5,8366.18 10024.5,8290.99 9914.44,8316.05 10044.5,8531.58 9974.45,8576.7 10014.5,8737.09 9984.46,8812.28 10184.5,8827.32 10349.5,8947.62 10309.5,8737.09 10374.5,8636.85 10504.6,8676.95 10519.6,8757.15 10519.6,8757.15 10574.6,8747.12 10589.6,8576.7 10529.6,8576.7 10569.6,8531.58 "
   style="fill:#ffffff;stroke:#000000;stroke-width:60;stroke-linejoin:bevel" /><polygon
   id="_143061864"
   class="fil7 str7"
   points="13235.1,8381.21 13235.1,8381.21 13240.1,8411.28 13230.1,8431.34 13220.1,8426.32 13210.1,8436.35 13220.1,8441.36 13190.1,8456.4 13185.1,8451.38 13210.1,8421.31 13200.1,8401.26 "
   style="fill:#ffffff;stroke:#000000;stroke-width:60;stroke-linejoin:bevel" /><path
   inkscape:connector-curvature="0"
   id="_142580104"
   d="m 12780,0.625 -135,175.3125 -135,-45 -20,90 -505.312,195.625 -80,230.625 L 12150,807.5 l -215.312,70 85.312,210.625 -185.312,120.3125 -225,446.25 -115,-210.625 -500,155.3125 -40,155.3125 -280.313,-110 -170,240.3125 -45,-5 -80,-195.3125 35,-30 35,0 25,-120.3125 -145,15 -20,120.3125 -185,10 -45,-95.3125 -320,110.3125 25,70.3125 -190,60 535,496.25 -100,55 10,100.3125 -140,45.3125 170,135.3125 -25,80 -205,95.3125 115,220.625 -70,120.3125 135,115.3125 -270,430.9375 -50,-35 -75,-50.3125 -30,110.3125 -500.3125,-85 90,-150.625 -410,-95 -70,-120.3125 -35,90 -395,-170.3125 55,190.3125 -800.3125,456.25 75,235.625 -275,-195.625 -105,165.625 -240,-5 -5,240.625 -470.3125,-15.3125 -65,-115 -365,335.625 -345,105.3125 -105,210.625 -160,-25 0,20 0,90 -470.3125,-115 -100,290.625 -120,-35 -50,455.9375 -130,-5 -10,-160.3125 70,-30 -120,-145.625 -460,-25 -25,65.3125 -415.3125,-15 -35,-125.3125 -105,50 -35,-75.3125 135,-50 -235,-35 0,-55.3125 -65,-10 -180,145.3125 -170,-5 -15,-205.3125 -70,25 -165.3125,-200.625 40.3125,-120.3125 -175.3125,-30 20,-90.3125 -160,55.3125 -35,-205.625 -90,0 -390,410.9375 -140,0 -115,-75 60,-65.3125 -85,-105 -175,0 -30,120.3125 160,145.3125 -135,5 -60,405.9375 315,-10 80,-145.3125 95,35 40,15 -130,265.625 -70,-90.3125 -40,446.25 120,70.3125 -180,60 135,195.625 -115,5 180,245.625 -215,170.3125 -265.3125,-85.3125 -15,50.3125 -455,130.3125 45,190.3125 195,100.3125 -75,100.3125 70,60 -330,285.9375 100,100 -165,90.3125 25,185.625 160,-25.3125 110,100.3125 -125,90.3125 40,50 -75,185.625 -115,-65.3125 -60,125.3125 -40,90.3125 -165,-65.3125 30,135.3125 -110,190.625 -110,-20 -270.3125,476.25 275.3125,305.625 35,185.3125 125,-65 -105,135.3125 175,265.625 20,130.3125 215,290.9375 -35,155.313 235,40 15,65.312 30,135 -55,50.312 90,225.626 -180,-45.313 -20,115.313 85,245.624 80,55.313 -90,295.625 125,50 25,210.625 165,65.313 40,325.624 -135,10 25,130.313 -115,45.313 -25,-100.313 -215,20 -25,240.625 275,225.625 -175,90 55,145.625 -45,75 30,45.312 -145,75 -10,135.313 120,85.313 -50,150.312 130,65 -165,140.625 40,165.313 -100,30 20,345.937 -80,180.625 -95,15 235,200.312 -75,95.313 135,210.625 195,25 15,75 25,140.625 75,5 95,85 65,-30 190.3125,75.313 85,-70.313 245,-35 -70,-85.313 190,-70 125,70 90,-150.312 -60,-60.312 50,-145.313 280,15 140,100.313 230.3125,-125.313 50,105.313 130,-155.313 255,335.625 125,-5 -30,120.312 145,105.313 205,-50 60,-85.313 85,15 75,165.626 140.3125,-110.313 100,35 85,170.313 155,50.312 -20,-60.312 110,-70 5,105.312 310,85 80,240.625 95,45 165,-190.313 355.3125,40 80,190.626 230,-155.626 -70,-30 75,-165.312 130,-125.312 -25,-50 60,-245.626 175,50 15,-95.312 -15,-30 -50,-140.312 85,10 35,-165.313 130,-80.313 80,145.313 125,-20 -5,-70.313 220.3125,-25 5,0 60,80.313 120,-135.313 -40,-90.312 285,-145.312 50,-115.313 120,45.313 -90,110 95,135.312 30,40.312 -110,25 30,155.313 -65,95.313 115,160.312 145,-140.312 240,160.312 320.3125,-65 165,230.625 -30,130.313 110,120.312 -60,145.312 115,30 10,5 215,-225.624 -70,-80 420,-105.313 147.1875,-297.813 320.625,-142.187 -265.625,-63.125 5,-196.562 -320.9375,-380.626 -238.4375,-226.25 -45,-128.124 -10.3125,-113.438 -75.3125,-45 44.375,-89.062 -78.4375,-25 -33.125,-90.938 -53.75,-65.312 8.4375,-205.626 56.5625,13.438 25,-374.062 545.9375,3.124 33.75,103.126 141.25,52.5 30,326.562 109.0625,78.438 178.75,-148.126 96.5625,-6.562 12.1875,69.688 197.5,99.687 223.7495,36.25 -267.4995,-261.563 223.125,-24.687 -87.5,-126.25 92.5,-100.625 -63.125,-105.625 30.3125,-309.375 -56.25,-174.688 -125,-248.124 66.5625,-56.25 82.1875,60.312 11.25,-100.312 208.125,44.062 61.25,-128.438 94.375,-36.25 42.813,19.376 25.937,22.187 117.187,-131.875 -31.874,-70.938 190.312,-76.874 199.688,37.812 57.187,-145.625 47.813,42.813 48.437,-23.75 3.75,-103.438 125.937,7.812 25,-85.312 57.5,71.25 69.376,-87.5 24.062,65 49.062,-41.562 -113.124,-211.563 -189.376,207.5 -115,-34.375 71.563,-99.062 45.313,55 0.62,-97.813 136.876,-140 -83.126,-218.437 -3.75,-376.25 -117.812,135.624 -17.5,-19.374 -57.188,32.187 -33.124,-17.5 51.562,-69.375 -95,-76.562 -34.688,-159.376 145.938,0.31 -15.312,40.313 71.25,17.187 125.937,52.187 60.625,-151.874 -43.125,19.374 3.437,-44.374 73.438,-184.063 -132.812,81.25 -116.25,-47.1875 -33.126,-251.25 197.813,-112.1875 7.5,121.5625 94.063,5.9375 40.937,-167.5 -115.313,-40.9375 -1.874,-31.5625 -29.376,-72.5 -37.812,-47.8125 16.875,-165.3125 10.937,-88.125 -152.812,-50.9375 -27.188,-39.0625 116.25,-23.4375 -6.25,-31.875 -81.562,-80.625 60.312,-59.6875 185,83.4375 71.563,-68.75 122.5,43.4375 -125.937,94.6875 40,114.375 -83.126,31.25 -24.062,72.5 43.75,101.5625 60.312,187.8125 95.626,21.25 76.562,-29.375 115.312,-5 336.876,-233.125 -72.5,-286.875 85.937,-46.25 -45,-54.375 216.875,-43.125 -65.312,97.5 57.187,28.125 -52.813,86.875 2.5,199.375 118.126,9.0625 318.75,124.375 230.937,5.625 701.563,615.9375 9.374,164.0625 22.813,570.312 211.875,-39.374 -7.812,49.062 -90.626,45.625 21.25,120.625 200.626,-15.938 35.312,-43.437 143.438,97.813 107.187,106.874 -91.25,25.313 14.063,56.875 -11.563,51.562 69.063,25.938 -14.688,150.625 -203.75,-45 -44.688,-102.187 49.376,-53.438 -125.626,-115 -122.812,69.688 -105,-29.376 62.5,118.126 -30.625,128.75 -99.375,-69.376 22.188,272.813 -337.813,380.937 -380,265.938 -168.125,70.625 -333.438,-42.813 -4.687,126.25 -54.063,351.876 61.25,185.937 -127.5,111.563 -55,122.187 -87.5,-10 37.188,123.437 -123.75,78.438 45,146.25 -198.438,-73.75 13.75,-197.5 -175.312,-60.312 -45,-107.188 -179.062,200.938 -117.5,-56.876 4.374,247.813 213.438,33.437 14.375,109.376 158.125,24.687 64.375,358.75 -123.75,-23.125 -163.75,107.188 77.187,87.812 -154.062,160.312 62.5,192.5 -170,-14.687 8.438,89.375 55.312,21.562 60.312,103.438 -55.624,403.125 -246.25,121.25 -606.876,-33.437 26.563,-135 -370.625,171.562 19.375,605.625 -115,28.125 -6.25,96.25 -240,33.75 5,50 -215,25.312 -5,295.626 105,-20 105,45 15,90.312 105,-20 -45,175.312 45,145.313 -200,55.313 90,115 -10,95.312 85,85.312 35,-15 165,235.626 -95,80 210,210.624 -15,60 -70,-25 55,100.313 20,100.313 115,130.312 -80,110.312 -60,140.313 35,45 -40,80.313 40,30 -45,90.312 185,150.312 100,-15 65,75 100,-65 100,45 -80,105.313 185.313,75.313 5,-130.313 5,-75.313 120,105.313 50,-80.313 110,110.313 15,-140.313 75,-15 25,135.313 80,-50 105,35 150,-40.313 10,55.313 40,-10 80,170.313 75,-25 75,130.312 -30,115.312 90,35 -20,60.313 175,20 60.312,180.625 -25,65 -25,50 4.688,85.312 90.312,50 25,-130.312 280,50.312 280,215.313 65,-65 120,10 220,-230.625 -35,-50 15,-140.312 85,-10 10,-135.313 -60,0 -5,-160.625 80,-45 -80,-145.312 -95,-50.313 560.312,-95.313 235,-75 130,-5 110,85.313 95,20 5,70 70,55.313 -50,280.624 185,110.313 -15,45 140,115.313 20,255.624 -95,-10 15,95.313 240.313,155.313 200,-70.313 105,285.937 155,-125.312 215,10 25,150.312 190,145.313 165,-145.313 165.313,250.626 140,-55 35,30 160,140.312 155,-130.312 205,0 75,175.312 180,370.938 -300,200.624 10,175.313 -100,-55 75,155.313 -165,-70 -200,145.312 135,240.312 -70,295.938 160,90.312 50,130.313 100,10 65,105.313 30,55 -100,65.312 170,160.312 215,-5 -110,470.938 55,431.25 565.312,160.312 65,130.313 90,45 260,-125.313 30,-155.312 -85,-20 35,-521.25 335,-120.312 -25,-105.313 225,10 80,-175.313 180,215.626 15,-175.626 5,-25 340.312,-145.312 -55,-285.625 -115.312,10 -130,10 -190,-170.625 -225,35.312 -50,-345.937 90,-50.313 -40,-150.312 75,-105 200,-35.312 -30,-110.313 -230,60.313 -25,-180.313 195,-90.313 -85,-130.312 100,-35.312 -35,-100 -25,-100.313 130,-150.313 60,120 395.312,-180.312 50,200.625 100,85 175,-320.625 335,25 95,-110.312 120,165.312 45,-140 100,20 45,-160.625 135.313,195.625 250,-25 110,-315.938 -135,-80 55,-65.312 -35,-160.312 40,-165.626 295,-40 10,80.313 190,60 -50,-95.313 220,-175.312 -295,-40 90,-80.312 -15,-90.313 145,-85 -30,-50.313 95,-195.312 75,-150.312 130,-100.313 -135,-160.625 320.313,-290.625 -5,-335.625 310,-330.938 25,-130.312 405,0 25,-60 -85,-150.625 125,80.313 20,-295.626 60,10 160,15 105.312,170.313 405,-10 -20,-225.625 245,220.625 275,-947.187 -140,-25.313 -55,-95 -50,-95.313 -285,210.313 -170,0 355,-666.563 10,-15 750.312,-190.312 225,70 305,-355.938 505,-180.312 125,-375.938 110.313,-55.312 -5,-10 -135.313,-160.312 140.313,-110.313 -130.313,-450.937 -155,-175.626 45,-385.937 200.313,35 10,-355.625 0,-5 -120.313,-45.312 -30,-195.313 -570,25 -20,-516.25 45,15 95,35 60,-235.625 -220,-270.625 55,-180.313 -190,-260.624 -95,-10 -210,-315.938 -100,30 -250.312,-370.938 130,-350.624 -105,-290.938 -400,-35 -90,100.312 -5,-135.312 -285,-5 -100,250.625 -80,10 20,210.625 -190.312,20 -130,-155.625 -225,120.313 -360,15.312 5,390.625 -170,0 -90,-25 10,-245.625 -225,5 35,-70 -335.313,125.312 -20,5 -180,-35.312 -15,-275.625 -160,-270.625 240,-215.3125 -60,-50.3125 -335,215.625 -750.313,-85.3125 -375,-531.25 150,-215.625 -35,-60 -75,170.3125 -145,-75 0,-90.3125 195,-30 -185,-70.3125 -335,165.3125 -260.312,-125.3125 -285,285.9375 -125,-210.625 -420,-370.9375 -160,-60 -315,60 -160,45 -140,-215.3125 235,-135.3125 -15,-10.3125 -140,-60 10,-285.625 -195.312,-60.3125 -55,-150.3125 -50,-165.3125 15,-165.625 -90,-75 30,-245.625 -120,-225.625 145,-300.625 -345,85 -75,-190.3125 -160,-165.3125 15,-110.3125 -80,-85.3125 95,-100.3125 -20,-20 85,-85.3125 40,-210.3125 -135,-70.3125 90,-340.9375 -100,-105 220,-40.3125 -40,-160.3125 -320,-55 155,-340.9375 -70,-180.3125 -285,40 20,-220.625 -225.313,-115.3125 230.313,-200.3125 -240.313,15 -105,-110.3125 60,-135.3125 385.313,-285.9375 -20,-180.3125 -165,-100.3125 90,-200.3125 -125,-85.3125 -75.313,-491.25 90.313,-205.625 -110.313,-210.3125 35,-185.625 -315,-250.625 0,260.625 -180,-85 -365,0 -120,90 -195,-10 -30,100.3125 -80.313,-10 15,-150.3125 -285,0 -70,-857.1875 -295,-195.3125 -165,100 -140,-265.625 -130,30.3125 -45,-75.3125 -135,25 L 13170,256.25 l -160,0 25,-160.625 -255,-95 z m -3956.875,14316.563 25.3125,9.374 -14.6875,36.876 47.5,15.937 -30,65.313 -19.375,-7.813 -8.75,6.563 -5.3125,24.062 -21.875,17.5 -25.625,-26.25 13.4375,-24.062 12.1875,4.687 18.4375,-27.187 5.625,-50.938 -7.5,-10 10.625,-34.062 z"
   style="fill:none;stroke:#000000;stroke-width:60;stroke-linecap:round;stroke-linejoin:round" /><path
   style="fill:none;stroke:#000000;stroke-width:60;stroke-linecap:butt;stroke-linejoin:miter;stroke-miterlimit:4;stroke-opacity:1;stroke-dasharray:none"
   d="m 9474.3321,10675.513 51.6808,30.538 -30.5385,61.077 73.7562,18.044 36.3012,36.514 71.301,-45.34 167.3361,2.462 -15.331,-46.693 -66.5945,26.268 -64.2871,-40.78 64.4978,-76.714 154.783,132.173 -62.5295,92.443 -138.2857,23.881 -51.4364,-43.698 -44.1277,89.084 -102.0086,-9.998 37.9002,92.795 -46.6751,2.115 1.2867,-25.949 -55.5479,-1.728 -0.6629,22.565 -42.1644,7.254 -53.6821,-62.202 42.6599,-33.572 62.7873,-11.817 -2.5527,-48.958 -10.8772,-12.875 -40.0764,2.394 -11.9904,21.846 -22.7119,17.362 -129.5422,-70.13 38.429,-38.782 -22.6455,-39.184 -25.2813,-20.07 -36.4139,60.108 -154.3426,1.017 28.6425,-137.808 -78.156,125.741 -58.0893,-0.492 -10.7184,-11.807 -22.7916,-4.021 -19.5512,17.324 -24.9702,-84.1 37.8392,-26.234 44.1624,-6.025 68.197,-3.397 -25.6117,-43.989 126.758,-28.532 2.5617,-51.067 27.9029,-17.924 73.0738,41.865 26.2728,-0.84 65.3914,-2.09 35.1212,56.165 -9.3963,37.587 140.9481,28.19 0,0 z"
   id="path4127"
   sodipodi:nodetypes="ccccccccccccccccccccccccccccccccccccccccccccccccccccccccccc"
   inkscape:connector-curvature="0" />
<path
   style="fill:#e0e4ff;fill-opacity:1;stroke-width:1.7864933"
   d="m 1792.1886,1775.3957 c -6.4535,-3.6913 -8.8986,-4.0236 -24.5643,-3.3384 -9.5686,0.4185 -17.3719,0.062 -17.3407,-0.7921 0.031,-0.8541 1.2371,-3.1134 2.6798,-5.0207 4.3361,-5.733 3.0659,-7.6748 -5.863,-8.963 -15.6117,-2.2524 -16.4628,-2.7462 -21.2811,-12.3467 -6.8969,-13.7425 -7.3228,-14.0861 -13.1729,-10.6304 -4.8616,2.8718 -5.5075,2.7594 -20.7883,-3.6183 -14.0826,-5.8777 -17.4918,-6.5933 -31.8492,-6.6848 l -16.0785,-0.1026 -5.1208,-6.1604 -5.1208,-6.1604 3.0179,-12.0144 c 2.9648,-11.8028 2.9537,-12.057 -0.6294,-14.436 l -3.6472,-2.4217 3.5826,-7.0226 c 2.9906,-5.862 4.3788,-6.9392 8.4002,-6.5185 4.6752,0.489 4.8562,0.1616 6.1248,-11.0813 1.4398,-12.759 0.1639,-15.6782 -5.5222,-12.6351 -3.4559,1.8496 -3.7648,1.5562 -3.7648,-3.5747 0,-4.0871 -0.9604,-5.8407 -3.573,-6.5239 -4.5072,-1.1787 -4.49,-1.3403 0.8933,-8.3981 5.4168,-7.1019 5.4768,-8.2179 0.7635,-14.2098 -4.6561,-5.9194 -6.6398,-5.9298 -8.8766,-0.047 -1.5513,4.0803 -2.1573,4.3656 -4.8686,2.292 -1.7032,-1.3026 -3.383,-2.5471 -3.7329,-2.7656 -1.2023,-0.7508 14.8817,-20.2652 16.7028,-20.2652 1.002,0 4.4308,0.7482 7.6195,1.6627 4.8638,1.3949 6.0849,1.1261 7.5808,-1.669 0.9807,-1.8325 1.7831,-5.4068 1.7831,-7.943 0,-6.4029 -11.7864,-23.6398 -17.0718,-24.9664 -3.7211,-0.9339 -4.127,-1.8124 -3.1672,-6.8555 1.4231,-7.4776 1.0019,-7.2245 8.5516,-5.1399 6.8977,1.9046 7.2093,1.6361 10.5928,-9.1303 0.5888,-1.8737 2.7589,-3.1264 5.416,-3.1264 2.4385,0 5.1784,-1.331 6.0888,-2.9578 1.5044,-2.6881 2.7357,-2.5253 13.5063,1.7865 17.4499,6.9857 19.093,6.481 14.5666,-4.4734 -0.8617,-2.0854 -0.095,-3.3237 2.5853,-4.1743 2.8045,-0.8902 5.9813,0.482 12.0345,5.198 4.5234,3.5241 8.9721,6.4075 9.8862,6.4075 0.914,0 8.5317,-4.9594 16.9282,-11.021 14.3986,-10.3944 15.4046,-10.832 17.6964,-7.6977 1.3365,1.8277 2.43,4.0772 2.43,4.9989 0,1.5767 5.772,1.3462 42.3081,-1.6896 l 12.831,-1.0661 6.392,-9.6272 c 3.5157,-5.2949 6.5849,-9.6182 6.8205,-9.6072 0.2356,0.011 8.0656,2.4137 17.4001,5.3395 9.3344,2.9258 18.307,5.3286 19.9392,5.3395 1.6321,0.011 5.0854,-2.4969 7.6739,-5.5732 l 4.7063,-5.5931 6.6505,5.3445 c 5.2715,4.2362 7.9405,5.1834 12.8708,4.5676 l 6.2203,-0.7768 -8.4522,7.7248 -8.4522,7.7249 10.1285,22.7778 c 5.5706,12.5278 11.0597,22.7778 12.1978,22.7778 1.1382,0 15.9392,-4.8777 32.8913,-10.8392 16.952,-5.9616 31.3449,-10.3331 31.9842,-9.7146 0.6393,0.6185 3.5922,8.8806 6.562,18.3601 l 5.3997,17.2356 10.4222,2.5437 10.4223,2.5437 -1.0872,6.7992 c -0.598,3.7396 -0.4735,7.1785 0.2767,7.6421 0.7501,0.4637 6.3863,1.8804 12.5247,3.1482 l 11.1609,2.3053 4.9149,-5.8874 4.915,-5.8873 10.3977,4.5984 c 5.7187,2.529 15.5245,5.1236 21.7906,5.7655 l 11.393,1.1673 -19.7973,15.8395 c -10.8886,8.7118 -20.7023,15.8408 -21.8083,15.8423 -1.1059,0 -13.0617,-4.5323 -26.5683,-10.0752 l -24.5576,-10.078 -4.0263,5.1045 c -24.7094,31.3256 -33.4377,43.1445 -33.4678,45.3186 -0.02,1.4201 2.1037,4.8151 4.7185,7.5444 l 4.7543,4.9624 -4.2024,10.5801 c -2.3114,5.8191 -5.0537,10.304 -6.0942,9.9666 -1.0404,-0.3374 -10.5385,-2.6506 -21.1069,-5.1405 -19.186,-4.52 -19.2399,-4.5478 -35.3492,-18.2489 -9.5716,-8.1407 -16.7754,-13.0585 -17.711,-12.0908 -0.8675,0.8972 -2.8012,6.3683 -4.2972,12.158 l -2.72,10.5267 16.1228,18.0571 c 16.1108,18.0438 16.122,18.0631 15.0743,25.9553 -0.5766,4.3439 -1.5132,8.3635 -2.0812,8.9324 -0.568,0.569 -11.3058,1.3133 -23.8618,1.6541 l -22.829,0.6196 -15.6195,-18.0379 -15.6194,-18.038 h -8.9452 -8.9452 l 1.0253,5.8061 c 4.4274,25.0692 5.2025,37.6376 3.0605,49.6235 -1.2244,6.8515 -2.7561,12.4475 -3.4038,12.4357 -0.6477,-0.013 -4.4027,-1.8662 -8.3444,-4.1208 z"
   id="path95"
   inkscape:connector-curvature="0"
   transform="scale(10)" /></svg>